<svg width="335" height="250" viewBox="0 0 335 250" fill="none" xmlns="http://www.w3.org/2000/svg">
<rect width="335" height="250" rx="20" fill="white"/>
<g filter="url(#filter0_d_543_1097)">
<rect x="72" y="68" width="192" height="114" rx="10" fill="#EEEEEE"/>
<rect x="71" y="67" width="194" height="116" rx="11" stroke="white" stroke-width="2"/>
</g>
<g filter="url(#filter1_d_543_1097)">
<rect x="92" y="21" width="151" height="24" rx="12" fill="white"/>
<rect x="91.5" y="20.5" width="152" height="25" rx="12.5" stroke="#107C41"/>
</g>
<path d="M151.386 29.564C151.487 29.58 151.579 29.6213 151.662 29.688C151.747 29.7547 151.814 29.8373 151.862 29.936C151.912 30.0347 151.938 30.14 151.938 30.252C151.938 30.3933 151.902 30.5213 151.83 30.636C151.758 30.748 151.652 30.8373 151.514 30.904C151.378 30.968 151.216 31 151.03 31H149.99V28.212H150.99C151.179 28.212 151.34 28.244 151.474 28.308C151.607 28.3693 151.707 28.4533 151.774 28.56C151.84 28.6667 151.874 28.7867 151.874 28.92C151.874 29.0853 151.828 29.2227 151.738 29.332C151.65 29.4387 151.532 29.516 151.386 29.564ZM150.354 29.416H150.966C151.136 29.416 151.268 29.376 151.362 29.296C151.455 29.216 151.502 29.1053 151.502 28.964C151.502 28.8227 151.455 28.712 151.362 28.632C151.268 28.552 151.134 28.512 150.958 28.512H150.354V29.416ZM150.998 30.7C151.179 30.7 151.32 30.6573 151.422 30.572C151.523 30.4867 151.574 30.368 151.574 30.216C151.574 30.0613 151.52 29.94 151.414 29.852C151.307 29.7613 151.164 29.716 150.986 29.716H150.354V30.7H150.998ZM154.387 28.808V31H154.023V30.676C153.953 30.788 153.856 30.876 153.731 30.94C153.608 31.0013 153.472 31.032 153.323 31.032C153.152 31.032 152.999 30.9973 152.863 30.928C152.727 30.856 152.619 30.7493 152.539 30.608C152.461 30.4667 152.423 30.2947 152.423 30.092V28.808H152.783V30.044C152.783 30.26 152.837 30.4267 152.947 30.544C153.056 30.6587 153.205 30.716 153.395 30.716C153.589 30.716 153.743 30.656 153.855 30.536C153.967 30.416 154.023 30.2413 154.023 30.012V28.808H154.387ZM155.365 28.04V31H155.001V28.04H155.365ZM157.21 31L156.35 30.032V31H155.986V28.04H156.35V29.78L157.194 28.808H157.702L156.67 29.9L157.706 31H157.21ZM160.975 29.028C160.975 29.26 160.895 29.4533 160.735 29.608C160.577 29.76 160.336 29.836 160.011 29.836H159.475V31H159.111V28.212H160.011C160.325 28.212 160.564 28.288 160.727 28.44C160.892 28.592 160.975 28.788 160.975 29.028ZM160.011 29.536C160.213 29.536 160.363 29.492 160.459 29.404C160.555 29.316 160.603 29.1907 160.603 29.028C160.603 28.684 160.405 28.512 160.011 28.512H159.475V29.536H160.011ZM161.791 29.164C161.855 29.0387 161.946 28.9413 162.063 28.872C162.183 28.8027 162.328 28.768 162.499 28.768V29.144H162.403C161.995 29.144 161.791 29.3653 161.791 29.808V31H161.427V28.808H161.791V29.164ZM163.875 31.036C163.67 31.036 163.483 30.9893 163.315 30.896C163.15 30.8027 163.019 30.6707 162.923 30.5C162.83 30.3267 162.783 30.1267 162.783 29.9C162.783 29.676 162.831 29.4787 162.927 29.308C163.026 29.1347 163.159 29.0027 163.327 28.912C163.495 28.8187 163.683 28.772 163.891 28.772C164.099 28.772 164.287 28.8187 164.455 28.912C164.623 29.0027 164.755 29.1333 164.851 29.304C164.95 29.4747 164.999 29.6733 164.999 29.9C164.999 30.1267 164.949 30.3267 164.847 30.5C164.749 30.6707 164.614 30.8027 164.443 30.896C164.273 30.9893 164.083 31.036 163.875 31.036ZM163.875 30.716C164.006 30.716 164.129 30.6853 164.243 30.624C164.358 30.5627 164.45 30.4707 164.519 30.348C164.591 30.2253 164.627 30.076 164.627 29.9C164.627 29.724 164.593 29.5747 164.523 29.452C164.454 29.3293 164.363 29.2387 164.251 29.18C164.139 29.1187 164.018 29.088 163.887 29.088C163.754 29.088 163.631 29.1187 163.519 29.18C163.41 29.2387 163.322 29.3293 163.255 29.452C163.189 29.5747 163.155 29.724 163.155 29.9C163.155 30.0787 163.187 30.2293 163.251 30.352C163.318 30.4747 163.406 30.5667 163.515 30.628C163.625 30.6867 163.745 30.716 163.875 30.716ZM165.342 29.896C165.342 29.672 165.387 29.476 165.478 29.308C165.569 29.1373 165.693 29.0053 165.85 28.912C166.01 28.8187 166.189 28.772 166.386 28.772C166.557 28.772 166.715 28.812 166.862 28.892C167.009 28.9693 167.121 29.072 167.198 29.2V28.04H167.566V31H167.198V30.588C167.126 30.7187 167.019 30.8267 166.878 30.912C166.737 30.9947 166.571 31.036 166.382 31.036C166.187 31.036 166.01 30.988 165.85 30.892C165.693 30.796 165.569 30.6613 165.478 30.488C165.387 30.3147 165.342 30.1173 165.342 29.896ZM167.198 29.9C167.198 29.7347 167.165 29.5907 167.098 29.468C167.031 29.3453 166.941 29.252 166.826 29.188C166.714 29.1213 166.59 29.088 166.454 29.088C166.318 29.088 166.194 29.12 166.082 29.184C165.97 29.248 165.881 29.3413 165.814 29.464C165.747 29.5867 165.714 29.7307 165.714 29.896C165.714 30.064 165.747 30.2107 165.814 30.336C165.881 30.4587 165.97 30.5533 166.082 30.62C166.194 30.684 166.318 30.716 166.454 30.716C166.59 30.716 166.714 30.684 166.826 30.62C166.941 30.5533 167.031 30.4587 167.098 30.336C167.165 30.2107 167.198 30.0653 167.198 29.9ZM170.125 28.808V31H169.761V30.676C169.692 30.788 169.594 30.876 169.469 30.94C169.346 31.0013 169.21 31.032 169.061 31.032C168.89 31.032 168.737 30.9973 168.601 30.928C168.465 30.856 168.357 30.7493 168.277 30.608C168.2 30.4667 168.161 30.2947 168.161 30.092V28.808H168.521V30.044C168.521 30.26 168.576 30.4267 168.685 30.544C168.794 30.6587 168.944 30.716 169.133 30.716C169.328 30.716 169.481 30.656 169.593 30.536C169.705 30.416 169.761 30.2413 169.761 30.012V28.808H170.125ZM170.604 29.9C170.604 29.6733 170.649 29.476 170.74 29.308C170.83 29.1373 170.956 29.0053 171.116 28.912C171.278 28.8187 171.464 28.772 171.672 28.772C171.941 28.772 172.162 28.8373 172.336 28.968C172.512 29.0987 172.628 29.28 172.684 29.512H172.292C172.254 29.3787 172.181 29.2733 172.072 29.196C171.965 29.1187 171.832 29.08 171.672 29.08C171.464 29.08 171.296 29.152 171.168 29.296C171.04 29.4373 170.976 29.6387 170.976 29.9C170.976 30.164 171.04 30.368 171.168 30.512C171.296 30.656 171.464 30.728 171.672 30.728C171.832 30.728 171.965 30.6907 172.072 30.616C172.178 30.5413 172.252 30.4347 172.292 30.296H172.684C172.625 30.52 172.508 30.7 172.332 30.836C172.156 30.9693 171.936 31.036 171.672 31.036C171.464 31.036 171.278 30.9893 171.116 30.896C170.956 30.8027 170.83 30.6707 170.74 30.5C170.649 30.3293 170.604 30.1293 170.604 29.9ZM173.613 29.108V30.4C173.613 30.5067 173.636 30.5827 173.681 30.628C173.727 30.6707 173.805 30.692 173.917 30.692H174.185V31H173.857C173.655 31 173.503 30.9533 173.401 30.86C173.3 30.7667 173.249 30.6133 173.249 30.4V29.108H172.965V28.808H173.249V28.256H173.613V28.808H174.185V29.108H173.613ZM155.488 34.212V35.976C155.488 36.224 155.548 36.408 155.668 36.528C155.791 36.648 155.96 36.708 156.176 36.708C156.39 36.708 156.556 36.648 156.676 36.528C156.799 36.408 156.86 36.224 156.86 35.976V34.212H157.224V35.972C157.224 36.204 157.178 36.4 157.084 36.56C156.991 36.7173 156.864 36.8347 156.704 36.912C156.547 36.9893 156.37 37.028 156.172 37.028C155.975 37.028 155.796 36.9893 155.636 36.912C155.479 36.8347 155.354 36.7173 155.26 36.56C155.17 36.4 155.124 36.204 155.124 35.972V34.212H155.488ZM158.195 35.212C158.267 35.0867 158.374 34.9827 158.515 34.9C158.659 34.8147 158.826 34.772 159.015 34.772C159.21 34.772 159.386 34.8187 159.543 34.912C159.703 35.0053 159.829 35.1373 159.919 35.308C160.01 35.476 160.055 35.672 160.055 35.896C160.055 36.1173 160.01 36.3147 159.919 36.488C159.829 36.6613 159.703 36.796 159.543 36.892C159.386 36.988 159.21 37.036 159.015 37.036C158.829 37.036 158.663 36.9947 158.519 36.912C158.378 36.8267 158.27 36.7213 158.195 36.596V38.04H157.831V34.808H158.195V35.212ZM159.683 35.896C159.683 35.7307 159.65 35.5867 159.583 35.464C159.517 35.3413 159.426 35.248 159.311 35.184C159.199 35.12 159.075 35.088 158.939 35.088C158.806 35.088 158.682 35.1213 158.567 35.188C158.455 35.252 158.365 35.3467 158.295 35.472C158.229 35.5947 158.195 35.7373 158.195 35.9C158.195 36.0653 158.229 36.2107 158.295 36.336C158.365 36.4587 158.455 36.5533 158.567 36.62C158.682 36.684 158.806 36.716 158.939 36.716C159.075 36.716 159.199 36.684 159.311 36.62C159.426 36.5533 159.517 36.4587 159.583 36.336C159.65 36.2107 159.683 36.064 159.683 35.896ZM160.899 34.04V37H160.535V34.04H160.899ZM162.475 37.036C162.27 37.036 162.083 36.9893 161.915 36.896C161.75 36.8027 161.619 36.6707 161.523 36.5C161.43 36.3267 161.383 36.1267 161.383 35.9C161.383 35.676 161.431 35.4787 161.527 35.308C161.626 35.1347 161.759 35.0027 161.927 34.912C162.095 34.8187 162.283 34.772 162.491 34.772C162.699 34.772 162.887 34.8187 163.055 34.912C163.223 35.0027 163.355 35.1333 163.451 35.304C163.55 35.4747 163.599 35.6733 163.599 35.9C163.599 36.1267 163.548 36.3267 163.447 36.5C163.348 36.6707 163.214 36.8027 163.043 36.896C162.872 36.9893 162.683 37.036 162.475 37.036ZM162.475 36.716C162.606 36.716 162.728 36.6853 162.843 36.624C162.958 36.5627 163.05 36.4707 163.119 36.348C163.191 36.2253 163.227 36.076 163.227 35.9C163.227 35.724 163.192 35.5747 163.123 35.452C163.054 35.3293 162.963 35.2387 162.851 35.18C162.739 35.1187 162.618 35.088 162.487 35.088C162.354 35.088 162.231 35.1187 162.119 35.18C162.01 35.2387 161.922 35.3293 161.855 35.452C161.788 35.5747 161.755 35.724 161.755 35.9C161.755 36.0787 161.787 36.2293 161.851 36.352C161.918 36.4747 162.006 36.5667 162.115 36.628C162.224 36.6867 162.344 36.716 162.475 36.716ZM163.942 35.896C163.942 35.672 163.987 35.476 164.078 35.308C164.168 35.1373 164.292 35.0053 164.45 34.912C164.61 34.8187 164.787 34.772 164.982 34.772C165.174 34.772 165.34 34.8133 165.482 34.896C165.623 34.9787 165.728 35.0827 165.798 35.208V34.808H166.166V37H165.798V36.592C165.726 36.72 165.618 36.8267 165.474 36.912C165.332 36.9947 165.167 37.036 164.978 37.036C164.783 37.036 164.607 36.988 164.45 36.892C164.292 36.796 164.168 36.6613 164.078 36.488C163.987 36.3147 163.942 36.1173 163.942 35.896ZM165.798 35.9C165.798 35.7347 165.764 35.5907 165.698 35.468C165.631 35.3453 165.54 35.252 165.426 35.188C165.314 35.1213 165.19 35.088 165.054 35.088C164.918 35.088 164.794 35.12 164.682 35.184C164.57 35.248 164.48 35.3413 164.414 35.464C164.347 35.5867 164.314 35.7307 164.314 35.896C164.314 36.064 164.347 36.2107 164.414 36.336C164.48 36.4587 164.57 36.5533 164.682 36.62C164.794 36.684 164.918 36.716 165.054 36.716C165.19 36.716 165.314 36.684 165.426 36.62C165.54 36.5533 165.631 36.4587 165.698 36.336C165.764 36.2107 165.798 36.0653 165.798 35.9ZM166.645 35.896C166.645 35.672 166.69 35.476 166.781 35.308C166.871 35.1373 166.995 35.0053 167.153 34.912C167.313 34.8187 167.491 34.772 167.689 34.772C167.859 34.772 168.018 34.812 168.165 34.892C168.311 34.9693 168.423 35.072 168.501 35.2V34.04H168.869V37H168.501V36.588C168.429 36.7187 168.322 36.8267 168.181 36.912C168.039 36.9947 167.874 37.036 167.685 37.036C167.49 37.036 167.313 36.988 167.153 36.892C166.995 36.796 166.871 36.6613 166.781 36.488C166.69 36.3147 166.645 36.1173 166.645 35.896ZM168.501 35.9C168.501 35.7347 168.467 35.5907 168.401 35.468C168.334 35.3453 168.243 35.252 168.129 35.188C168.017 35.1213 167.893 35.088 167.757 35.088C167.621 35.088 167.497 35.12 167.385 35.184C167.273 35.248 167.183 35.3413 167.117 35.464C167.05 35.5867 167.017 35.7307 167.017 35.896C167.017 36.064 167.05 36.2107 167.117 36.336C167.183 36.4587 167.273 36.5533 167.385 36.62C167.497 36.684 167.621 36.716 167.757 36.716C167.893 36.716 168.017 36.684 168.129 36.62C168.243 36.5533 168.334 36.4587 168.401 36.336C168.467 36.2107 168.501 36.0653 168.501 35.9Z" fill="#10B981"/>
<path d="M199.09 31L198.426 29.86H197.986V31H197.622V28.212H198.522C198.733 28.212 198.91 28.248 199.054 28.32C199.201 28.392 199.31 28.4893 199.382 28.612C199.454 28.7347 199.49 28.8747 199.49 29.032C199.49 29.224 199.434 29.3933 199.322 29.54C199.213 29.6867 199.048 29.784 198.826 29.832L199.526 31H199.09ZM197.986 29.568H198.522C198.72 29.568 198.868 29.52 198.966 29.424C199.065 29.3253 199.114 29.1947 199.114 29.032C199.114 28.8667 199.065 28.7387 198.966 28.648C198.87 28.5573 198.722 28.512 198.522 28.512H197.986V29.568ZM201.012 31.036C200.807 31.036 200.62 30.9893 200.452 30.896C200.287 30.8027 200.156 30.6707 200.06 30.5C199.967 30.3267 199.92 30.1267 199.92 29.9C199.92 29.676 199.968 29.4787 200.064 29.308C200.163 29.1347 200.296 29.0027 200.464 28.912C200.632 28.8187 200.82 28.772 201.028 28.772C201.236 28.772 201.424 28.8187 201.592 28.912C201.76 29.0027 201.892 29.1333 201.988 29.304C202.087 29.4747 202.136 29.6733 202.136 29.9C202.136 30.1267 202.085 30.3267 201.984 30.5C201.885 30.6707 201.751 30.8027 201.58 30.896C201.409 30.9893 201.22 31.036 201.012 31.036ZM201.012 30.716C201.143 30.716 201.265 30.6853 201.38 30.624C201.495 30.5627 201.587 30.4707 201.656 30.348C201.728 30.2253 201.764 30.076 201.764 29.9C201.764 29.724 201.729 29.5747 201.66 29.452C201.591 29.3293 201.5 29.2387 201.388 29.18C201.276 29.1187 201.155 29.088 201.024 29.088C200.891 29.088 200.768 29.1187 200.656 29.18C200.547 29.2387 200.459 29.3293 200.392 29.452C200.325 29.5747 200.292 29.724 200.292 29.9C200.292 30.0787 200.324 30.2293 200.388 30.352C200.455 30.4747 200.543 30.5667 200.652 30.628C200.761 30.6867 200.881 30.716 201.012 30.716ZM202.979 28.04V31H202.615V28.04H202.979ZM205.599 29.82C205.599 29.8893 205.595 29.9627 205.587 30.04H203.835C203.848 30.256 203.922 30.4253 204.055 30.548C204.191 30.668 204.355 30.728 204.547 30.728C204.704 30.728 204.835 30.692 204.939 30.62C205.046 30.5453 205.12 30.4467 205.163 30.324H205.555C205.496 30.5347 205.379 30.7067 205.203 30.84C205.027 30.9707 204.808 31.036 204.547 31.036C204.339 31.036 204.152 30.9893 203.987 30.896C203.824 30.8027 203.696 30.6707 203.603 30.5C203.51 30.3267 203.463 30.1267 203.463 29.9C203.463 29.6733 203.508 29.4747 203.599 29.304C203.69 29.1333 203.816 29.0027 203.979 28.912C204.144 28.8187 204.334 28.772 204.547 28.772C204.755 28.772 204.939 28.8173 205.099 28.908C205.259 28.9987 205.382 29.124 205.467 29.284C205.555 29.4413 205.599 29.62 205.599 29.82ZM205.223 29.744C205.223 29.6053 205.192 29.4867 205.131 29.388C205.07 29.2867 204.986 29.2107 204.879 29.16C204.775 29.1067 204.659 29.08 204.531 29.08C204.347 29.08 204.19 29.1387 204.059 29.256C203.931 29.3733 203.858 29.536 203.839 29.744H205.223ZM207.599 29.38V29.688H206.003V29.38H207.599ZM209.679 29.564C209.78 29.58 209.872 29.6213 209.955 29.688C210.04 29.7547 210.107 29.8373 210.155 29.936C210.205 30.0347 210.231 30.14 210.231 30.252C210.231 30.3933 210.195 30.5213 210.123 30.636C210.051 30.748 209.945 30.8373 209.807 30.904C209.671 30.968 209.509 31 209.323 31H208.283V28.212H209.283C209.472 28.212 209.633 28.244 209.767 28.308C209.9 28.3693 210 28.4533 210.067 28.56C210.133 28.6667 210.167 28.7867 210.167 28.92C210.167 29.0853 210.121 29.2227 210.031 29.332C209.943 29.4387 209.825 29.516 209.679 29.564ZM208.647 29.416H209.259C209.429 29.416 209.561 29.376 209.655 29.296C209.748 29.216 209.795 29.1053 209.795 28.964C209.795 28.8227 209.748 28.712 209.655 28.632C209.561 28.552 209.427 28.512 209.251 28.512H208.647V29.416ZM209.291 30.7C209.472 30.7 209.613 30.6573 209.715 30.572C209.816 30.4867 209.867 30.368 209.867 30.216C209.867 30.0613 209.813 29.94 209.707 29.852C209.6 29.7613 209.457 29.716 209.279 29.716H208.647V30.7H209.291ZM210.6 29.896C210.6 29.672 210.645 29.476 210.736 29.308C210.826 29.1373 210.95 29.0053 211.108 28.912C211.268 28.8187 211.445 28.772 211.64 28.772C211.832 28.772 211.998 28.8133 212.14 28.896C212.281 28.9787 212.386 29.0827 212.456 29.208V28.808H212.824V31H212.456V30.592C212.384 30.72 212.276 30.8267 212.132 30.912C211.99 30.9947 211.825 31.036 211.636 31.036C211.441 31.036 211.265 30.988 211.108 30.892C210.95 30.796 210.826 30.6613 210.736 30.488C210.645 30.3147 210.6 30.1173 210.6 29.896ZM212.456 29.9C212.456 29.7347 212.422 29.5907 212.356 29.468C212.289 29.3453 212.198 29.252 212.084 29.188C211.972 29.1213 211.848 29.088 211.712 29.088C211.576 29.088 211.452 29.12 211.34 29.184C211.228 29.248 211.138 29.3413 211.072 29.464C211.005 29.5867 210.972 29.7307 210.972 29.896C210.972 30.064 211.005 30.2107 211.072 30.336C211.138 30.4587 211.228 30.5533 211.34 30.62C211.452 30.684 211.576 30.716 211.712 30.716C211.848 30.716 211.972 30.684 212.084 30.62C212.198 30.5533 212.289 30.4587 212.356 30.336C212.422 30.2107 212.456 30.0653 212.456 29.9ZM214.215 31.036C214.047 31.036 213.896 31.008 213.763 30.952C213.63 30.8933 213.524 30.8133 213.447 30.712C213.37 30.608 213.327 30.4893 213.319 30.356H213.695C213.706 30.4653 213.756 30.5547 213.847 30.624C213.94 30.6933 214.062 30.728 214.211 30.728C214.35 30.728 214.459 30.6973 214.539 30.636C214.619 30.5747 214.659 30.4973 214.659 30.404C214.659 30.308 214.616 30.2373 214.531 30.192C214.446 30.144 214.314 30.0973 214.135 30.052C213.972 30.0093 213.839 29.9667 213.735 29.924C213.634 29.8787 213.546 29.8133 213.471 29.728C213.399 29.64 213.363 29.5253 213.363 29.384C213.363 29.272 213.396 29.1693 213.463 29.076C213.53 28.9827 213.624 28.9093 213.747 28.856C213.87 28.8 214.01 28.772 214.167 28.772C214.41 28.772 214.606 28.8333 214.755 28.956C214.904 29.0787 214.984 29.2467 214.995 29.46H214.631C214.623 29.3453 214.576 29.2533 214.491 29.184C214.408 29.1147 214.296 29.08 214.155 29.08C214.024 29.08 213.92 29.108 213.843 29.164C213.766 29.22 213.727 29.2933 213.727 29.384C213.727 29.456 213.75 29.516 213.795 29.564C213.843 29.6093 213.902 29.6467 213.971 29.676C214.043 29.7027 214.142 29.7333 214.267 29.768C214.424 29.8107 214.552 29.8533 214.651 29.896C214.75 29.936 214.834 29.9973 214.903 30.08C214.975 30.1627 215.012 30.2707 215.015 30.404C215.015 30.524 214.982 30.632 214.915 30.728C214.848 30.824 214.754 30.9 214.631 30.956C214.511 31.0093 214.372 31.036 214.215 31.036ZM217.529 29.82C217.529 29.8893 217.525 29.9627 217.517 30.04H215.765C215.778 30.256 215.851 30.4253 215.985 30.548C216.121 30.668 216.285 30.728 216.477 30.728C216.634 30.728 216.765 30.692 216.869 30.62C216.975 30.5453 217.05 30.4467 217.093 30.324H217.485C217.426 30.5347 217.309 30.7067 217.133 30.84C216.957 30.9707 216.738 31.036 216.477 31.036C216.269 31.036 216.082 30.9893 215.917 30.896C215.754 30.8027 215.626 30.6707 215.533 30.5C215.439 30.3267 215.393 30.1267 215.393 29.9C215.393 29.6733 215.438 29.4747 215.529 29.304C215.619 29.1333 215.746 29.0027 215.909 28.912C216.074 28.8187 216.263 28.772 216.477 28.772C216.685 28.772 216.869 28.8173 217.029 28.908C217.189 28.9987 217.311 29.124 217.397 29.284C217.485 29.4413 217.529 29.62 217.529 29.82ZM217.153 29.744C217.153 29.6053 217.122 29.4867 217.061 29.388C216.999 29.2867 216.915 29.2107 216.809 29.16C216.705 29.1067 216.589 29.08 216.461 29.08C216.277 29.08 216.119 29.1387 215.989 29.256C215.861 29.3733 215.787 29.536 215.769 29.744H217.153ZM217.873 29.896C217.873 29.672 217.919 29.476 218.009 29.308C218.1 29.1373 218.224 29.0053 218.381 28.912C218.541 28.8187 218.72 28.772 218.917 28.772C219.088 28.772 219.247 28.812 219.393 28.892C219.54 28.9693 219.652 29.072 219.729 29.2V28.04H220.097V31H219.729V30.588C219.657 30.7187 219.551 30.8267 219.409 30.912C219.268 30.9947 219.103 31.036 218.913 31.036C218.719 31.036 218.541 30.988 218.381 30.892C218.224 30.796 218.1 30.6613 218.009 30.488C217.919 30.3147 217.873 30.1173 217.873 29.896ZM219.729 29.9C219.729 29.7347 219.696 29.5907 219.629 29.468C219.563 29.3453 219.472 29.252 219.357 29.188C219.245 29.1213 219.121 29.088 218.985 29.088C218.849 29.088 218.725 29.12 218.613 29.184C218.501 29.248 218.412 29.3413 218.345 29.464C218.279 29.5867 218.245 29.7307 218.245 29.896C218.245 30.064 218.279 30.2107 218.345 30.336C218.412 30.4587 218.501 30.5533 218.613 30.62C218.725 30.684 218.849 30.716 218.985 30.716C219.121 30.716 219.245 30.684 219.357 30.62C219.472 30.5533 219.563 30.4587 219.629 30.336C219.696 30.2107 219.729 30.0653 219.729 29.9ZM223.427 30.38H222.211L221.987 31H221.603L222.611 28.228H223.031L224.035 31H223.651L223.427 30.38ZM223.323 30.084L222.819 28.676L222.315 30.084H223.323ZM224.338 29.9C224.338 29.6733 224.383 29.476 224.474 29.308C224.565 29.1373 224.69 29.0053 224.85 28.912C225.013 28.8187 225.198 28.772 225.406 28.772C225.675 28.772 225.897 28.8373 226.07 28.968C226.246 29.0987 226.362 29.28 226.418 29.512H226.026C225.989 29.3787 225.915 29.2733 225.806 29.196C225.699 29.1187 225.566 29.08 225.406 29.08C225.198 29.08 225.03 29.152 224.902 29.296C224.774 29.4373 224.71 29.6387 224.71 29.9C224.71 30.164 224.774 30.368 224.902 30.512C225.03 30.656 225.198 30.728 225.406 30.728C225.566 30.728 225.699 30.6907 225.806 30.616C225.913 30.5413 225.986 30.4347 226.026 30.296H226.418C226.359 30.52 226.242 30.7 226.066 30.836C225.89 30.9693 225.67 31.036 225.406 31.036C225.198 31.036 225.013 30.9893 224.85 30.896C224.69 30.8027 224.565 30.6707 224.474 30.5C224.383 30.3293 224.338 30.1293 224.338 29.9ZM226.768 29.9C226.768 29.6733 226.813 29.476 226.904 29.308C226.994 29.1373 227.12 29.0053 227.28 28.912C227.442 28.8187 227.628 28.772 227.836 28.772C228.105 28.772 228.326 28.8373 228.5 28.968C228.676 29.0987 228.792 29.28 228.848 29.512H228.456C228.418 29.3787 228.345 29.2733 228.236 29.196C228.129 29.1187 227.996 29.08 227.836 29.08C227.628 29.08 227.46 29.152 227.332 29.296C227.204 29.4373 227.14 29.6387 227.14 29.9C227.14 30.164 227.204 30.368 227.332 30.512C227.46 30.656 227.628 30.728 227.836 30.728C227.996 30.728 228.129 30.6907 228.236 30.616C228.342 30.5413 228.416 30.4347 228.456 30.296H228.848C228.789 30.52 228.672 30.7 228.496 30.836C228.32 30.9693 228.1 31.036 227.836 31.036C227.628 31.036 227.442 30.9893 227.28 30.896C227.12 30.8027 226.994 30.6707 226.904 30.5C226.813 30.3293 226.768 30.1293 226.768 29.9ZM231.333 29.82C231.333 29.8893 231.329 29.9627 231.321 30.04H229.569C229.583 30.256 229.656 30.4253 229.789 30.548C229.925 30.668 230.089 30.728 230.281 30.728C230.439 30.728 230.569 30.692 230.673 30.62C230.78 30.5453 230.855 30.4467 230.897 30.324H231.289C231.231 30.5347 231.113 30.7067 230.937 30.84C230.761 30.9707 230.543 31.036 230.281 31.036C230.073 31.036 229.887 30.9893 229.721 30.896C229.559 30.8027 229.431 30.6707 229.337 30.5C229.244 30.3267 229.197 30.1267 229.197 29.9C229.197 29.6733 229.243 29.4747 229.333 29.304C229.424 29.1333 229.551 29.0027 229.713 28.912C229.879 28.8187 230.068 28.772 230.281 28.772C230.489 28.772 230.673 28.8173 230.833 28.908C230.993 28.9987 231.116 29.124 231.201 29.284C231.289 29.4413 231.333 29.62 231.333 29.82ZM230.957 29.744C230.957 29.6053 230.927 29.4867 230.865 29.388C230.804 29.2867 230.72 29.2107 230.613 29.16C230.509 29.1067 230.393 29.08 230.265 29.08C230.081 29.08 229.924 29.1387 229.793 29.256C229.665 29.3733 229.592 29.536 229.573 29.744H230.957ZM232.59 31.036C232.422 31.036 232.271 31.008 232.138 30.952C232.005 30.8933 231.899 30.8133 231.822 30.712C231.745 30.608 231.702 30.4893 231.694 30.356H232.07C232.081 30.4653 232.131 30.5547 232.222 30.624C232.315 30.6933 232.437 30.728 232.586 30.728C232.725 30.728 232.834 30.6973 232.914 30.636C232.994 30.5747 233.034 30.4973 233.034 30.404C233.034 30.308 232.991 30.2373 232.906 30.192C232.821 30.144 232.689 30.0973 232.51 30.052C232.347 30.0093 232.214 29.9667 232.11 29.924C232.009 29.8787 231.921 29.8133 231.846 29.728C231.774 29.64 231.738 29.5253 231.738 29.384C231.738 29.272 231.771 29.1693 231.838 29.076C231.905 28.9827 231.999 28.9093 232.122 28.856C232.245 28.8 232.385 28.772 232.542 28.772C232.785 28.772 232.981 28.8333 233.13 28.956C233.279 29.0787 233.359 29.2467 233.37 29.46H233.006C232.998 29.3453 232.951 29.2533 232.866 29.184C232.783 29.1147 232.671 29.08 232.53 29.08C232.399 29.08 232.295 29.108 232.218 29.164C232.141 29.22 232.102 29.2933 232.102 29.384C232.102 29.456 232.125 29.516 232.17 29.564C232.218 29.6093 232.277 29.6467 232.346 29.676C232.418 29.7027 232.517 29.7333 232.642 29.768C232.799 29.8107 232.927 29.8533 233.026 29.896C233.125 29.936 233.209 29.9973 233.278 30.08C233.35 30.1627 233.387 30.2707 233.39 30.404C233.39 30.524 233.357 30.632 233.29 30.728C233.223 30.824 233.129 30.9 233.006 30.956C232.886 31.0093 232.747 31.036 232.59 31.036ZM234.68 31.036C234.512 31.036 234.361 31.008 234.228 30.952C234.094 30.8933 233.989 30.8133 233.912 30.712C233.834 30.608 233.792 30.4893 233.784 30.356H234.16C234.17 30.4653 234.221 30.5547 234.312 30.624C234.405 30.6933 234.526 30.728 234.676 30.728C234.814 30.728 234.924 30.6973 235.004 30.636C235.084 30.5747 235.124 30.4973 235.124 30.404C235.124 30.308 235.081 30.2373 234.996 30.192C234.91 30.144 234.778 30.0973 234.6 30.052C234.437 30.0093 234.304 29.9667 234.2 29.924C234.098 29.8787 234.01 29.8133 233.936 29.728C233.864 29.64 233.828 29.5253 233.828 29.384C233.828 29.272 233.861 29.1693 233.928 29.076C233.994 28.9827 234.089 28.9093 234.212 28.856C234.334 28.8 234.474 28.772 234.632 28.772C234.874 28.772 235.07 28.8333 235.22 28.956C235.369 29.0787 235.449 29.2467 235.46 29.46H235.096C235.088 29.3453 235.041 29.2533 234.956 29.184C234.873 29.1147 234.761 29.08 234.62 29.08C234.489 29.08 234.385 29.108 234.308 29.164C234.23 29.22 234.192 29.2933 234.192 29.384C234.192 29.456 234.214 29.516 234.26 29.564C234.308 29.6093 234.366 29.6467 234.436 29.676C234.508 29.7027 234.606 29.7333 234.732 29.768C234.889 29.8107 235.017 29.8533 235.116 29.896C235.214 29.936 235.298 29.9973 235.368 30.08C235.44 30.1627 235.477 30.2707 235.48 30.404C235.48 30.524 235.446 30.632 235.38 30.728C235.313 30.824 235.218 30.9 235.096 30.956C234.976 31.0093 234.837 31.036 234.68 31.036ZM209.322 35.604C209.322 35.332 209.384 35.088 209.506 34.872C209.629 34.6533 209.796 34.4827 210.006 34.36C210.22 34.2373 210.456 34.176 210.714 34.176C211.018 34.176 211.284 34.2493 211.51 34.396C211.737 34.5427 211.902 34.7507 212.006 35.02H211.57C211.493 34.852 211.381 34.7227 211.234 34.632C211.09 34.5413 210.917 34.496 210.714 34.496C210.52 34.496 210.345 34.5413 210.19 34.632C210.036 34.7227 209.914 34.852 209.826 35.02C209.738 35.1853 209.694 35.38 209.694 35.604C209.694 35.8253 209.738 36.02 209.826 36.188C209.914 36.3533 210.036 36.4813 210.19 36.572C210.345 36.6627 210.52 36.708 210.714 36.708C210.917 36.708 211.09 36.664 211.234 36.576C211.381 36.4853 211.493 36.356 211.57 36.188H212.006C211.902 36.4547 211.737 36.6613 211.51 36.808C211.284 36.952 211.018 37.024 210.714 37.024C210.456 37.024 210.22 36.964 210.006 36.844C209.796 36.7213 209.629 36.552 209.506 36.336C209.384 36.12 209.322 35.876 209.322 35.604ZM213.504 37.036C213.299 37.036 213.112 36.9893 212.944 36.896C212.779 36.8027 212.648 36.6707 212.552 36.5C212.459 36.3267 212.412 36.1267 212.412 35.9C212.412 35.676 212.46 35.4787 212.556 35.308C212.655 35.1347 212.788 35.0027 212.956 34.912C213.124 34.8187 213.312 34.772 213.52 34.772C213.728 34.772 213.916 34.8187 214.084 34.912C214.252 35.0027 214.384 35.1333 214.48 35.304C214.579 35.4747 214.628 35.6733 214.628 35.9C214.628 36.1267 214.578 36.3267 214.476 36.5C214.378 36.6707 214.243 36.8027 214.072 36.896C213.902 36.9893 213.712 37.036 213.504 37.036ZM213.504 36.716C213.635 36.716 213.758 36.6853 213.872 36.624C213.987 36.5627 214.079 36.4707 214.148 36.348C214.22 36.2253 214.256 36.076 214.256 35.9C214.256 35.724 214.222 35.5747 214.152 35.452C214.083 35.3293 213.992 35.2387 213.88 35.18C213.768 35.1187 213.647 35.088 213.516 35.088C213.383 35.088 213.26 35.1187 213.148 35.18C213.039 35.2387 212.951 35.3293 212.884 35.452C212.818 35.5747 212.784 35.724 212.784 35.9C212.784 36.0787 212.816 36.2293 212.88 36.352C212.947 36.4747 213.035 36.5667 213.144 36.628C213.254 36.6867 213.374 36.716 213.504 36.716ZM216.175 34.768C216.441 34.768 216.657 34.8493 216.823 35.012C216.988 35.172 217.071 35.404 217.071 35.708V37H216.711V35.76C216.711 35.5413 216.656 35.3747 216.547 35.26C216.437 35.1427 216.288 35.084 216.099 35.084C215.907 35.084 215.753 35.144 215.639 35.264C215.527 35.384 215.471 35.5587 215.471 35.788V37H215.107V34.808H215.471V35.12C215.543 35.008 215.64 34.9213 215.763 34.86C215.888 34.7987 216.025 34.768 216.175 34.768ZM218.109 35.108V36.4C218.109 36.5067 218.132 36.5827 218.177 36.628C218.223 36.6707 218.301 36.692 218.413 36.692H218.681V37H218.353C218.151 37 217.999 36.9533 217.897 36.86C217.796 36.7667 217.745 36.6133 217.745 36.4V35.108H217.461V34.808H217.745V34.256H218.109V34.808H218.681V35.108H218.109ZM219.486 35.164C219.55 35.0387 219.641 34.9413 219.758 34.872C219.878 34.8027 220.024 34.768 220.194 34.768V35.144H220.098C219.69 35.144 219.486 35.3653 219.486 35.808V37H219.122V34.808H219.486V35.164ZM221.571 37.036C221.365 37.036 221.179 36.9893 221.011 36.896C220.845 36.8027 220.715 36.6707 220.619 36.5C220.525 36.3267 220.479 36.1267 220.479 35.9C220.479 35.676 220.527 35.4787 220.623 35.308C220.721 35.1347 220.855 35.0027 221.023 34.912C221.191 34.8187 221.379 34.772 221.587 34.772C221.795 34.772 221.983 34.8187 222.151 34.912C222.319 35.0027 222.451 35.1333 222.547 35.304C222.645 35.4747 222.695 35.6733 222.695 35.9C222.695 36.1267 222.644 36.3267 222.543 36.5C222.444 36.6707 222.309 36.8027 222.139 36.896C221.968 36.9893 221.779 37.036 221.571 37.036ZM221.571 36.716C221.701 36.716 221.824 36.6853 221.939 36.624C222.053 36.5627 222.145 36.4707 222.215 36.348C222.287 36.2253 222.323 36.076 222.323 35.9C222.323 35.724 222.288 35.5747 222.219 35.452C222.149 35.3293 222.059 35.2387 221.947 35.18C221.835 35.1187 221.713 35.088 221.583 35.088C221.449 35.088 221.327 35.1187 221.215 35.18C221.105 35.2387 221.017 35.3293 220.951 35.452C220.884 35.5747 220.851 35.724 220.851 35.9C220.851 36.0787 220.883 36.2293 220.947 36.352C221.013 36.4747 221.101 36.5667 221.211 36.628C221.32 36.6867 221.44 36.716 221.571 36.716ZM223.537 34.04V37H223.173V34.04H223.537Z" fill="#10B981"/>
<rect x="93" y="22" width="45" height="22" rx="11" fill="#10B981"/>
<path d="M113.421 31.028C113.237 31.028 113.071 30.996 112.925 30.932C112.781 30.8653 112.667 30.7747 112.585 30.66C112.502 30.5427 112.459 30.408 112.457 30.256H112.845C112.858 30.3867 112.911 30.4973 113.005 30.588C113.101 30.676 113.239 30.72 113.421 30.72C113.594 30.72 113.73 30.6773 113.829 30.592C113.93 30.504 113.981 30.392 113.981 30.256C113.981 30.1493 113.951 30.0627 113.893 29.996C113.834 29.9293 113.761 29.8787 113.673 29.844C113.585 29.8093 113.466 29.772 113.317 29.732C113.133 29.684 112.985 29.636 112.873 29.588C112.763 29.54 112.669 29.4653 112.589 29.364C112.511 29.26 112.473 29.1213 112.473 28.948C112.473 28.796 112.511 28.6613 112.589 28.544C112.666 28.4267 112.774 28.336 112.913 28.272C113.054 28.208 113.215 28.176 113.397 28.176C113.658 28.176 113.871 28.2413 114.037 28.372C114.205 28.5027 114.299 28.676 114.321 28.892H113.921C113.907 28.7853 113.851 28.692 113.753 28.612C113.654 28.5293 113.523 28.488 113.361 28.488C113.209 28.488 113.085 28.528 112.989 28.608C112.893 28.6853 112.845 28.7947 112.845 28.936C112.845 29.0373 112.873 29.12 112.929 29.184C112.987 29.248 113.058 29.2973 113.141 29.332C113.226 29.364 113.345 29.4013 113.497 29.444C113.681 29.4947 113.829 29.5453 113.941 29.596C114.053 29.644 114.149 29.72 114.229 29.824C114.309 29.9253 114.349 30.064 114.349 30.24C114.349 30.376 114.313 30.504 114.241 30.624C114.169 30.744 114.062 30.8413 113.921 30.916C113.779 30.9907 113.613 31.028 113.421 31.028ZM115.248 28.508V29.44H116.264V29.74H115.248V30.7H116.384V31H114.884V28.208H116.384V28.508H115.248ZM118.199 31.028C117.94 31.028 117.704 30.968 117.491 30.848C117.278 30.7253 117.108 30.556 116.983 30.34C116.86 30.1213 116.799 29.876 116.799 29.604C116.799 29.332 116.86 29.088 116.983 28.872C117.108 28.6533 117.278 28.484 117.491 28.364C117.704 28.2413 117.94 28.18 118.199 28.18C118.46 28.18 118.698 28.2413 118.911 28.364C119.124 28.484 119.292 28.652 119.415 28.868C119.538 29.084 119.599 29.3293 119.599 29.604C119.599 29.8787 119.538 30.124 119.415 30.34C119.292 30.556 119.124 30.7253 118.911 30.848C118.698 30.968 118.46 31.028 118.199 31.028ZM118.199 30.712C118.394 30.712 118.568 30.6667 118.723 30.576C118.88 30.4853 119.003 30.356 119.091 30.188C119.182 30.02 119.227 29.8253 119.227 29.604C119.227 29.38 119.182 29.1853 119.091 29.02C119.003 28.852 118.882 28.7227 118.727 28.632C118.572 28.5413 118.396 28.496 118.199 28.496C118.002 28.496 117.826 28.5413 117.671 28.632C117.516 28.7227 117.394 28.852 117.303 29.02C117.215 29.1853 117.171 29.38 117.171 29.604C117.171 29.8253 117.215 30.02 117.303 30.188C117.394 30.356 117.516 30.4853 117.671 30.576C117.828 30.6667 118.004 30.712 118.199 30.712ZM105.531 34.232V37H105.167V34.936L104.247 37H103.991L103.067 34.932V37H102.703V34.232H103.095L104.119 36.52L105.143 34.232H105.531ZM106.012 35.896C106.012 35.672 106.057 35.476 106.148 35.308C106.239 35.1373 106.363 35.0053 106.52 34.912C106.68 34.8187 106.857 34.772 107.052 34.772C107.244 34.772 107.411 34.8133 107.552 34.896C107.693 34.9787 107.799 35.0827 107.868 35.208V34.808H108.236V37H107.868V36.592C107.796 36.72 107.688 36.8267 107.544 36.912C107.403 36.9947 107.237 37.036 107.048 37.036C106.853 37.036 106.677 36.988 106.52 36.892C106.363 36.796 106.239 36.6613 106.148 36.488C106.057 36.3147 106.012 36.1173 106.012 35.896ZM107.868 35.9C107.868 35.7347 107.835 35.5907 107.768 35.468C107.701 35.3453 107.611 35.252 107.496 35.188C107.384 35.1213 107.26 35.088 107.124 35.088C106.988 35.088 106.864 35.12 106.752 35.184C106.64 35.248 106.551 35.3413 106.484 35.464C106.417 35.5867 106.384 35.7307 106.384 35.896C106.384 36.064 106.417 36.2107 106.484 36.336C106.551 36.4587 106.64 36.5533 106.752 36.62C106.864 36.684 106.988 36.716 107.124 36.716C107.26 36.716 107.384 36.684 107.496 36.62C107.611 36.5533 107.701 36.4587 107.768 36.336C107.835 36.2107 107.868 36.0653 107.868 35.9ZM109.919 34.768C110.186 34.768 110.402 34.8493 110.567 35.012C110.732 35.172 110.815 35.404 110.815 35.708V37H110.455V35.76C110.455 35.5413 110.4 35.3747 110.291 35.26C110.182 35.1427 110.032 35.084 109.843 35.084C109.651 35.084 109.498 35.144 109.383 35.264C109.271 35.384 109.215 35.5587 109.215 35.788V37H108.851V34.808H109.215V35.12C109.287 35.008 109.384 34.9213 109.507 34.86C109.632 34.7987 109.77 34.768 109.919 34.768ZM111.274 35.896C111.274 35.672 111.319 35.476 111.41 35.308C111.5 35.1373 111.624 35.0053 111.782 34.912C111.942 34.8187 112.119 34.772 112.314 34.772C112.506 34.772 112.672 34.8133 112.814 34.896C112.955 34.9787 113.06 35.0827 113.13 35.208V34.808H113.498V37H113.13V36.592C113.058 36.72 112.95 36.8267 112.806 36.912C112.664 36.9947 112.499 37.036 112.31 37.036C112.115 37.036 111.939 36.988 111.782 36.892C111.624 36.796 111.5 36.6613 111.41 36.488C111.319 36.3147 111.274 36.1173 111.274 35.896ZM113.13 35.9C113.13 35.7347 113.096 35.5907 113.03 35.468C112.963 35.3453 112.872 35.252 112.758 35.188C112.646 35.1213 112.522 35.088 112.386 35.088C112.25 35.088 112.126 35.12 112.014 35.184C111.902 35.248 111.812 35.3413 111.746 35.464C111.679 35.5867 111.646 35.7307 111.646 35.896C111.646 36.064 111.679 36.2107 111.746 36.336C111.812 36.4587 111.902 36.5533 112.014 36.62C112.126 36.684 112.25 36.716 112.386 36.716C112.522 36.716 112.646 36.684 112.758 36.62C112.872 36.5533 112.963 36.4587 113.03 36.336C113.096 36.2107 113.13 36.0653 113.13 35.9ZM115.017 34.772C115.206 34.772 115.371 34.8133 115.513 34.896C115.657 34.9787 115.763 35.0827 115.833 35.208V34.808H116.201V37.048C116.201 37.248 116.158 37.4253 116.073 37.58C115.987 37.7373 115.865 37.86 115.705 37.948C115.547 38.036 115.363 38.08 115.153 38.08C114.865 38.08 114.625 38.012 114.433 37.876C114.241 37.74 114.127 37.5547 114.093 37.32H114.453C114.493 37.4533 114.575 37.56 114.701 37.64C114.826 37.7227 114.977 37.764 115.153 37.764C115.353 37.764 115.515 37.7013 115.641 37.576C115.769 37.4507 115.833 37.2747 115.833 37.048V36.588C115.761 36.716 115.654 36.8227 115.513 36.908C115.371 36.9933 115.206 37.036 115.017 37.036C114.822 37.036 114.645 36.988 114.485 36.892C114.327 36.796 114.203 36.6613 114.113 36.488C114.022 36.3147 113.977 36.1173 113.977 35.896C113.977 35.672 114.022 35.476 114.113 35.308C114.203 35.1373 114.327 35.0053 114.485 34.912C114.645 34.8187 114.822 34.772 115.017 34.772ZM115.833 35.9C115.833 35.7347 115.799 35.5907 115.733 35.468C115.666 35.3453 115.575 35.252 115.461 35.188C115.349 35.1213 115.225 35.088 115.089 35.088C114.953 35.088 114.829 35.12 114.717 35.184C114.605 35.248 114.515 35.3413 114.449 35.464C114.382 35.5867 114.349 35.7307 114.349 35.896C114.349 36.064 114.382 36.2107 114.449 36.336C114.515 36.4587 114.605 36.5533 114.717 36.62C114.829 36.684 114.953 36.716 115.089 36.716C115.225 36.716 115.349 36.684 115.461 36.62C115.575 36.5533 115.666 36.4587 115.733 36.336C115.799 36.2107 115.833 36.0653 115.833 35.9ZM118.816 35.82C118.816 35.8893 118.812 35.9627 118.804 36.04H117.052C117.065 36.256 117.138 36.4253 117.272 36.548C117.408 36.668 117.572 36.728 117.764 36.728C117.921 36.728 118.052 36.692 118.156 36.62C118.262 36.5453 118.337 36.4467 118.38 36.324H118.772C118.713 36.5347 118.596 36.7067 118.42 36.84C118.244 36.9707 118.025 37.036 117.764 37.036C117.556 37.036 117.369 36.9893 117.204 36.896C117.041 36.8027 116.913 36.6707 116.82 36.5C116.726 36.3267 116.68 36.1267 116.68 35.9C116.68 35.6733 116.725 35.4747 116.816 35.304C116.906 35.1333 117.033 35.0027 117.196 34.912C117.361 34.8187 117.55 34.772 117.764 34.772C117.972 34.772 118.156 34.8173 118.316 34.908C118.476 34.9987 118.598 35.124 118.684 35.284C118.772 35.4413 118.816 35.62 118.816 35.82ZM118.44 35.744C118.44 35.6053 118.409 35.4867 118.348 35.388C118.286 35.2867 118.202 35.2107 118.096 35.16C117.992 35.1067 117.876 35.08 117.748 35.08C117.564 35.08 117.406 35.1387 117.276 35.256C117.148 35.3733 117.074 35.536 117.056 35.744H118.44ZM121.932 34.768C122.103 34.768 122.255 34.804 122.388 34.876C122.522 34.9453 122.627 35.0507 122.704 35.192C122.782 35.3333 122.82 35.5053 122.82 35.708V37H122.46V35.76C122.46 35.5413 122.406 35.3747 122.296 35.26C122.19 35.1427 122.044 35.084 121.86 35.084C121.671 35.084 121.52 35.1453 121.408 35.268C121.296 35.388 121.24 35.5627 121.24 35.792V37H120.88V35.76C120.88 35.5413 120.826 35.3747 120.716 35.26C120.61 35.1427 120.464 35.084 120.28 35.084C120.091 35.084 119.94 35.1453 119.828 35.268C119.716 35.388 119.66 35.5627 119.66 35.792V37H119.296V34.808H119.66V35.124C119.732 35.0093 119.828 34.9213 119.948 34.86C120.071 34.7987 120.206 34.768 120.352 34.768C120.536 34.768 120.699 34.8093 120.84 34.892C120.982 34.9747 121.087 35.096 121.156 35.256C121.218 35.1013 121.319 34.9813 121.46 34.896C121.602 34.8107 121.759 34.768 121.932 34.768ZM125.417 35.82C125.417 35.8893 125.413 35.9627 125.405 36.04H123.653C123.667 36.256 123.74 36.4253 123.873 36.548C124.009 36.668 124.173 36.728 124.365 36.728C124.523 36.728 124.653 36.692 124.757 36.62C124.864 36.5453 124.939 36.4467 124.981 36.324H125.373C125.315 36.5347 125.197 36.7067 125.021 36.84C124.845 36.9707 124.627 37.036 124.365 37.036C124.157 37.036 123.971 36.9893 123.805 36.896C123.643 36.8027 123.515 36.6707 123.421 36.5C123.328 36.3267 123.281 36.1267 123.281 35.9C123.281 35.6733 123.327 35.4747 123.417 35.304C123.508 35.1333 123.635 35.0027 123.797 34.912C123.963 34.8187 124.152 34.772 124.365 34.772C124.573 34.772 124.757 34.8173 124.917 34.908C125.077 34.9987 125.2 35.124 125.285 35.284C125.373 35.4413 125.417 35.62 125.417 35.82ZM125.041 35.744C125.041 35.6053 125.011 35.4867 124.949 35.388C124.888 35.2867 124.804 35.2107 124.697 35.16C124.593 35.1067 124.477 35.08 124.349 35.08C124.165 35.08 124.008 35.1387 123.877 35.256C123.749 35.3733 123.676 35.536 123.657 35.744H125.041ZM126.966 34.768C127.233 34.768 127.449 34.8493 127.614 35.012C127.779 35.172 127.862 35.404 127.862 35.708V37H127.502V35.76C127.502 35.5413 127.447 35.3747 127.338 35.26C127.229 35.1427 127.079 35.084 126.89 35.084C126.698 35.084 126.545 35.144 126.43 35.264C126.318 35.384 126.262 35.5587 126.262 35.788V37H125.898V34.808H126.262V35.12C126.334 35.008 126.431 34.9213 126.554 34.86C126.679 34.7987 126.817 34.768 126.966 34.768ZM128.9 35.108V36.4C128.9 36.5067 128.923 36.5827 128.968 36.628C129.014 36.6707 129.092 36.692 129.204 36.692H129.472V37H129.144C128.942 37 128.79 36.9533 128.688 36.86C128.587 36.7667 128.536 36.6133 128.536 36.4V35.108H128.252V34.808H128.536V34.256H128.9V34.808H129.472V35.108H128.9Z" fill="white"/>
<rect x="78" y="87" width="29" height="89" rx="2" fill="#D9D9D9"/>
<circle cx="81" cy="78" r="2" fill="#9D9D9D"/>
<circle cx="87" cy="78" r="2" fill="#10B981"/>
<circle cx="93" cy="78" r="2" fill="#9D9D9D"/>
<path d="M93.1455 162.48C93.3563 162.569 93.5828 162.619 93.8174 162.619C94.0505 162.619 94.2757 162.569 94.4854 162.481C94.2965 162.57 94.0974 162.622 93.8955 162.632C93.6403 162.645 93.3844 162.593 93.1455 162.48ZM95.1045 162.065L95.0684 162.093C95.0792 162.082 95.09 162.071 95.1006 162.061L95.1045 162.065ZM89.1611 160.373C89.4676 160.506 89.7963 160.581 90.1357 160.587C90.1357 160.592 90.1357 160.597 90.1357 160.602C89.8005 160.595 89.47 160.518 89.1611 160.373ZM93.5215 158.589C93.7847 158.537 94.055 158.555 94.3125 158.642C94.3337 158.649 94.354 158.659 94.375 158.667C94.1975 158.607 94.0097 158.574 93.8174 158.574C93.6257 158.574 93.4387 158.606 93.2617 158.666C93.3469 158.634 93.4333 158.606 93.5215 158.589ZM90.1816 154.5H93.8174C94.1253 154.5 94.4311 154.562 94.7217 154.681C94.4325 154.572 94.1269 154.515 93.8174 154.515H90.1816C89.8284 154.515 89.4855 154.59 89.167 154.728C89.4882 154.578 89.833 154.5 90.1816 154.5ZM94.7637 154.697C94.7747 154.702 94.7859 154.706 94.7969 154.711C94.7858 154.706 94.7748 154.702 94.7637 154.697Z" fill="#848484" stroke="#848484"/>
<path d="M96.9557 132.811H94.8611C94.5834 132.811 94.317 132.92 94.1202 133.116C93.9234 133.312 93.8124 133.578 93.8114 133.856V135.95C93.8112 136.088 93.8383 136.225 93.891 136.352C93.9437 136.48 94.021 136.595 94.1185 136.693C94.216 136.79 94.3318 136.868 94.4592 136.92C94.5866 136.973 94.7232 137 94.8611 137H96.9557C97.2332 136.999 97.499 136.888 97.6948 136.691C97.8905 136.494 98.0003 136.228 98 135.95V133.856C98.0001 133.718 97.9732 133.583 97.9208 133.456C97.8684 133.329 97.7914 133.214 97.6944 133.117C97.5974 133.02 97.4823 132.943 97.3555 132.891C97.2287 132.838 97.0929 132.811 96.9557 132.811M91.1389 132.811H89.0443C88.7668 132.812 88.5012 132.924 88.3055 133.121C88.1098 133.317 88 133.584 88 133.861V135.956C87.9999 136.093 88.0268 136.229 88.0792 136.355C88.1316 136.482 88.2086 136.597 88.3056 136.694C88.4026 136.791 88.5177 136.868 88.6445 136.921C88.7713 136.973 88.9071 137 89.0443 137H91.1389C91.4165 137 91.6828 136.891 91.8796 136.695C92.0764 136.499 92.1875 136.233 92.1886 135.956V133.861C92.1888 133.723 92.1617 133.587 92.109 133.459C92.0563 133.332 91.979 133.216 91.8815 133.118C91.784 133.021 91.6682 132.944 91.5408 132.891C91.4134 132.838 91.2768 132.811 91.1389 132.811M91.1389 127H89.0443C88.9071 127 88.7713 127.027 88.6445 127.079C88.5177 127.132 88.4026 127.209 88.3056 127.306C88.2086 127.403 88.1316 127.518 88.0792 127.645C88.0268 127.771 87.9999 127.907 88 128.044V130.139C87.9997 130.416 88.1095 130.683 88.3052 130.88C88.501 131.076 88.7668 131.188 89.0443 131.189H91.1389C91.2768 131.189 91.4134 131.162 91.5408 131.109C91.6682 131.056 91.784 130.979 91.8815 130.882C91.979 130.784 92.0563 130.668 92.109 130.541C92.1617 130.413 92.1888 130.277 92.1886 130.139V128.044C92.1875 127.767 92.0764 127.501 91.8796 127.305C91.6828 127.109 91.4165 127 91.1389 127ZM96.9557 127H94.8611C94.5835 127 94.3172 127.109 94.1204 127.305C93.9236 127.501 93.8125 127.767 93.8114 128.044V130.139C93.8115 130.417 93.9221 130.684 94.119 130.881C94.3158 131.078 94.5827 131.189 94.8611 131.189H96.9557C97.2332 131.188 97.499 131.076 97.6948 130.88C97.8905 130.683 98.0003 130.416 98 130.139V128.044C98.0001 127.907 97.9732 127.771 97.9208 127.645C97.8684 127.518 97.7914 127.403 97.6944 127.306C97.5974 127.209 97.4823 127.132 97.3555 127.079C97.2287 127.027 97.0929 127 96.9557 127Z" stroke="#848484" stroke-linecap="round" stroke-linejoin="round"/>
<rect x="116" y="87" width="135" height="40" rx="2" fill="#D9D9D9"/>
<rect x="143" y="94" width="86" height="4" rx="2" fill="#B0B0B0"/>
<rect x="143" y="100" width="58" height="4" rx="2" fill="#BDBDBD"/>
<rect x="143" y="106" width="49" height="4" rx="2" fill="#C4C4C4"/>
<circle cx="129" cy="102" r="9" fill="white"/>
<g filter="url(#filter2_d_543_1097)">
<rect x="167" y="135" width="30" height="12" rx="6" fill="#FF3636"/>
</g>
<path d="M176.894 141.604H177.566V142H176.381V139.894H176.894V141.604ZM178.573 142.024C178.409 142.024 178.261 141.989 178.129 141.919C177.999 141.849 177.896 141.749 177.82 141.619C177.746 141.489 177.709 141.337 177.709 141.163C177.709 140.991 177.747 140.84 177.823 140.71C177.899 140.578 178.003 140.477 178.135 140.407C178.267 140.337 178.415 140.302 178.579 140.302C178.743 140.302 178.891 140.337 179.023 140.407C179.155 140.477 179.259 140.578 179.335 140.71C179.411 140.84 179.449 140.991 179.449 141.163C179.449 141.335 179.41 141.487 179.332 141.619C179.256 141.749 179.151 141.849 179.017 141.919C178.885 141.989 178.737 142.024 178.573 142.024ZM178.573 141.58C178.671 141.58 178.754 141.544 178.822 141.472C178.892 141.4 178.927 141.297 178.927 141.163C178.927 141.029 178.893 140.926 178.825 140.854C178.759 140.782 178.677 140.746 178.579 140.746C178.479 140.746 178.396 140.782 178.33 140.854C178.264 140.924 178.231 141.027 178.231 141.163C178.231 141.297 178.263 141.4 178.327 141.472C178.393 141.544 178.475 141.58 178.573 141.58ZM180.357 140.302C180.475 140.302 180.578 140.326 180.666 140.374C180.756 140.422 180.825 140.485 180.873 140.563V140.326H181.386V141.997C181.386 142.151 181.355 142.29 181.293 142.414C181.233 142.54 181.14 142.64 181.014 142.714C180.89 142.788 180.735 142.825 180.549 142.825C180.301 142.825 180.1 142.766 179.946 142.648C179.792 142.532 179.704 142.374 179.682 142.174H180.189C180.205 142.238 180.243 142.288 180.303 142.324C180.363 142.362 180.437 142.381 180.525 142.381C180.631 142.381 180.715 142.35 180.777 142.288C180.841 142.228 180.873 142.131 180.873 141.997V141.76C180.823 141.838 180.754 141.902 180.666 141.952C180.578 142 180.475 142.024 180.357 142.024C180.219 142.024 180.094 141.989 179.982 141.919C179.87 141.847 179.781 141.746 179.715 141.616C179.651 141.484 179.619 141.332 179.619 141.16C179.619 140.988 179.651 140.837 179.715 140.707C179.781 140.577 179.87 140.477 179.982 140.407C180.094 140.337 180.219 140.302 180.357 140.302ZM180.873 141.163C180.873 141.035 180.837 140.934 180.765 140.86C180.695 140.786 180.609 140.749 180.507 140.749C180.405 140.749 180.318 140.786 180.246 140.86C180.176 140.932 180.141 141.032 180.141 141.16C180.141 141.288 180.176 141.39 180.246 141.466C180.318 141.54 180.405 141.577 180.507 141.577C180.609 141.577 180.695 141.54 180.765 141.466C180.837 141.392 180.873 141.291 180.873 141.163ZM183.389 142.021C183.191 142.021 183.009 141.975 182.843 141.883C182.679 141.791 182.548 141.663 182.45 141.499C182.354 141.333 182.306 141.147 182.306 140.941C182.306 140.735 182.354 140.55 182.45 140.386C182.548 140.222 182.679 140.094 182.843 140.002C183.009 139.91 183.191 139.864 183.389 139.864C183.587 139.864 183.768 139.91 183.932 140.002C184.098 140.094 184.228 140.222 184.322 140.386C184.418 140.55 184.466 140.735 184.466 140.941C184.466 141.147 184.418 141.333 184.322 141.499C184.226 141.663 184.096 141.791 183.932 141.883C183.768 141.975 183.587 142.021 183.389 142.021ZM183.389 141.553C183.557 141.553 183.691 141.497 183.791 141.385C183.893 141.273 183.944 141.125 183.944 140.941C183.944 140.755 183.893 140.607 183.791 140.497C183.691 140.385 183.557 140.329 183.389 140.329C183.219 140.329 183.083 140.384 182.981 140.494C182.881 140.604 182.831 140.753 182.831 140.941C182.831 141.127 182.881 141.276 182.981 141.388C183.083 141.498 183.219 141.553 183.389 141.553ZM186.404 140.326V142H185.891V141.772C185.839 141.846 185.768 141.906 185.678 141.952C185.59 141.996 185.492 142.018 185.384 142.018C185.256 142.018 185.143 141.99 185.045 141.934C184.947 141.876 184.871 141.793 184.817 141.685C184.763 141.577 184.736 141.45 184.736 141.304V140.326H185.246V141.235C185.246 141.347 185.275 141.434 185.333 141.496C185.391 141.558 185.469 141.589 185.567 141.589C185.667 141.589 185.746 141.558 185.804 141.496C185.862 141.434 185.891 141.347 185.891 141.235V140.326H186.404ZM187.705 141.565V142H187.444C187.258 142 187.113 141.955 187.009 141.865C186.905 141.773 186.853 141.624 186.853 141.418V140.752H186.649V140.326H186.853V139.918H187.366V140.326H187.702V140.752H187.366V141.424C187.366 141.474 187.378 141.51 187.402 141.532C187.426 141.554 187.466 141.565 187.522 141.565H187.705Z" fill="white"/>
<g clip-path="url(#clip0_543_1097)">
<path d="M84.1316 222.714L83.5683 222.296C83.5187 222.26 83.4767 222.213 83.445 222.161C83.4132 222.108 83.3921 222.049 83.383 221.988C83.374 221.927 83.377 221.865 83.392 221.805C83.407 221.745 83.4337 221.689 83.4705 221.639L85.331 219.128L83.2824 218.674L83.2689 218.671C83.1515 218.64 83.0458 218.575 82.965 218.484C82.8842 218.394 82.8318 218.281 82.8143 218.161L82.8098 218.131C82.7965 218.005 82.8221 217.878 82.8833 217.767C82.9445 217.656 83.0383 217.567 83.152 217.511L89.0364 214.571C89.1394 214.52 89.2546 214.498 89.3693 214.508C89.484 214.518 89.5937 214.559 89.6862 214.628C89.7787 214.696 89.8504 214.789 89.8934 214.896C89.9363 215.003 89.9488 215.119 89.9295 215.233L88.8304 221.718C88.8085 221.843 88.7495 221.957 88.6613 222.047C88.5731 222.137 88.4597 222.198 88.3361 222.223C88.2124 222.247 88.0843 222.234 87.9685 222.184C87.8527 222.134 87.7546 222.051 87.6871 221.944L87.6802 221.932L86.6473 220.105L84.7872 222.616C84.7132 222.716 84.6026 222.782 84.4796 222.801C84.3566 222.819 84.2314 222.788 84.1316 222.714Z" fill="#A8A8A8"/>
</g>
<path d="M91.333 103.083H94.667C95.0424 103.083 95.4024 103.233 95.668 103.498C95.9336 103.764 96.083 104.124 96.083 104.5C96.083 104.655 96.0215 104.803 95.9121 104.912C95.8027 105.022 95.6547 105.083 95.5 105.083H90.5C90.3453 105.083 90.1973 105.022 90.0879 104.912C89.9785 104.803 89.917 104.655 89.917 104.5L89.9238 104.36C89.956 104.036 90.0995 103.731 90.332 103.498C90.5976 103.233 90.9576 103.083 91.333 103.083ZM93 98.917C93.2652 98.917 93.5195 99.0224 93.707 99.21C93.8945 99.3975 94 99.6519 94 99.917C93.9999 100.182 93.8945 100.437 93.707 100.624C93.5195 100.811 93.2651 100.917 93 100.917C92.7349 100.917 92.4805 100.811 92.293 100.624C92.1055 100.437 92.0001 100.182 92 99.917C92 99.6519 92.1055 99.3975 92.293 99.21C92.4571 99.0458 92.6724 98.9446 92.9014 98.9219L93 98.917Z" fill="#848484" stroke="#848484" stroke-width="1.33333"/>
<defs>
<filter id="filter0_d_543_1097" x="66" y="66" width="204" height="126" filterUnits="userSpaceOnUse" color-interpolation-filters="sRGB">
<feFlood flood-opacity="0" result="BackgroundImageFix"/>
<feColorMatrix in="SourceAlpha" type="matrix" values="0 0 0 0 0 0 0 0 0 0 0 0 0 0 0 0 0 0 127 0" result="hardAlpha"/>
<feOffset dy="4"/>
<feGaussianBlur stdDeviation="2"/>
<feComposite in2="hardAlpha" operator="out"/>
<feColorMatrix type="matrix" values="0 0 0 0 0 0 0 0 0 0 0 0 0 0 0 0 0 0 0.25 0"/>
<feBlend mode="normal" in2="BackgroundImageFix" result="effect1_dropShadow_543_1097"/>
<feBlend mode="normal" in="SourceGraphic" in2="effect1_dropShadow_543_1097" result="shape"/>
</filter>
<filter id="filter1_d_543_1097" x="88.4" y="19.4" width="168.2" height="41.2" filterUnits="userSpaceOnUse" color-interpolation-filters="sRGB">
<feFlood flood-opacity="0" result="BackgroundImageFix"/>
<feColorMatrix in="SourceAlpha" type="matrix" values="0 0 0 0 0 0 0 0 0 0 0 0 0 0 0 0 0 0 127 0" result="hardAlpha"/>
<feOffset dx="5" dy="7"/>
<feGaussianBlur stdDeviation="3.8"/>
<feComposite in2="hardAlpha" operator="out"/>
<feColorMatrix type="matrix" values="0 0 0 0 0 0 0 0 0 0 0 0 0 0 0 0 0 0 0.25 0"/>
<feBlend mode="normal" in2="BackgroundImageFix" result="effect1_dropShadow_543_1097"/>
<feBlend mode="normal" in="SourceGraphic" in2="effect1_dropShadow_543_1097" result="shape"/>
</filter>
<filter id="filter2_d_543_1097" x="165" y="133" width="38" height="20" filterUnits="userSpaceOnUse" color-interpolation-filters="sRGB">
<feFlood flood-opacity="0" result="BackgroundImageFix"/>
<feColorMatrix in="SourceAlpha" type="matrix" values="0 0 0 0 0 0 0 0 0 0 0 0 0 0 0 0 0 0 127 0" result="hardAlpha"/>
<feOffset dx="2" dy="2"/>
<feGaussianBlur stdDeviation="2"/>
<feComposite in2="hardAlpha" operator="out"/>
<feColorMatrix type="matrix" values="0 0 0 0 0 0 0 0 0 0 0 0 0 0 0 0 0 0 0.25 0"/>
<feBlend mode="normal" in2="BackgroundImageFix" result="effect1_dropShadow_543_1097"/>
<feBlend mode="normal" in="SourceGraphic" in2="effect1_dropShadow_543_1097" result="shape"/>
</filter>
<clipPath id="clip0_543_1097">
<rect width="10" height="10" fill="white" transform="translate(90.8906 213) rotate(81.5354)"/>
</clipPath>
</defs>
</svg>
