<svg width="335" height="250" viewBox="0 0 335 250" fill="none" xmlns="http://www.w3.org/2000/svg">
<rect width="335" height="250" rx="20" fill="white"/>
<g filter="url(#filter0_d_543_1099)">
<rect x="72" y="68" width="192" height="114" rx="10" fill="#EEEEEE"/>
<rect x="71" y="67" width="194" height="116" rx="11" stroke="white" stroke-width="2"/>
</g>
<g filter="url(#filter1_d_543_1099)">
<rect x="92" y="21" width="151" height="24" rx="12" fill="white"/>
<rect x="91.5" y="20.5" width="152" height="25" rx="12.5" stroke="#107C41"/>
</g>
<path d="M199.09 31L198.426 29.86H197.986V31H197.622V28.212H198.522C198.733 28.212 198.91 28.248 199.054 28.32C199.201 28.392 199.31 28.4893 199.382 28.612C199.454 28.7347 199.49 28.8747 199.49 29.032C199.49 29.224 199.434 29.3933 199.322 29.54C199.213 29.6867 199.048 29.784 198.826 29.832L199.526 31H199.09ZM197.986 29.568H198.522C198.72 29.568 198.868 29.52 198.966 29.424C199.065 29.3253 199.114 29.1947 199.114 29.032C199.114 28.8667 199.065 28.7387 198.966 28.648C198.87 28.5573 198.722 28.512 198.522 28.512H197.986V29.568ZM201.012 31.036C200.807 31.036 200.62 30.9893 200.452 30.896C200.287 30.8027 200.156 30.6707 200.06 30.5C199.967 30.3267 199.92 30.1267 199.92 29.9C199.92 29.676 199.968 29.4787 200.064 29.308C200.163 29.1347 200.296 29.0027 200.464 28.912C200.632 28.8187 200.82 28.772 201.028 28.772C201.236 28.772 201.424 28.8187 201.592 28.912C201.76 29.0027 201.892 29.1333 201.988 29.304C202.087 29.4747 202.136 29.6733 202.136 29.9C202.136 30.1267 202.085 30.3267 201.984 30.5C201.885 30.6707 201.751 30.8027 201.58 30.896C201.409 30.9893 201.22 31.036 201.012 31.036ZM201.012 30.716C201.143 30.716 201.265 30.6853 201.38 30.624C201.495 30.5627 201.587 30.4707 201.656 30.348C201.728 30.2253 201.764 30.076 201.764 29.9C201.764 29.724 201.729 29.5747 201.66 29.452C201.591 29.3293 201.5 29.2387 201.388 29.18C201.276 29.1187 201.155 29.088 201.024 29.088C200.891 29.088 200.768 29.1187 200.656 29.18C200.547 29.2387 200.459 29.3293 200.392 29.452C200.325 29.5747 200.292 29.724 200.292 29.9C200.292 30.0787 200.324 30.2293 200.388 30.352C200.455 30.4747 200.543 30.5667 200.652 30.628C200.761 30.6867 200.881 30.716 201.012 30.716ZM202.979 28.04V31H202.615V28.04H202.979ZM205.599 29.82C205.599 29.8893 205.595 29.9627 205.587 30.04H203.835C203.848 30.256 203.922 30.4253 204.055 30.548C204.191 30.668 204.355 30.728 204.547 30.728C204.704 30.728 204.835 30.692 204.939 30.62C205.046 30.5453 205.12 30.4467 205.163 30.324H205.555C205.496 30.5347 205.379 30.7067 205.203 30.84C205.027 30.9707 204.808 31.036 204.547 31.036C204.339 31.036 204.152 30.9893 203.987 30.896C203.824 30.8027 203.696 30.6707 203.603 30.5C203.51 30.3267 203.463 30.1267 203.463 29.9C203.463 29.6733 203.508 29.4747 203.599 29.304C203.69 29.1333 203.816 29.0027 203.979 28.912C204.144 28.8187 204.334 28.772 204.547 28.772C204.755 28.772 204.939 28.8173 205.099 28.908C205.259 28.9987 205.382 29.124 205.467 29.284C205.555 29.4413 205.599 29.62 205.599 29.82ZM205.223 29.744C205.223 29.6053 205.192 29.4867 205.131 29.388C205.07 29.2867 204.986 29.2107 204.879 29.16C204.775 29.1067 204.659 29.08 204.531 29.08C204.347 29.08 204.19 29.1387 204.059 29.256C203.931 29.3733 203.858 29.536 203.839 29.744H205.223ZM207.599 29.38V29.688H206.003V29.38H207.599ZM209.679 29.564C209.78 29.58 209.872 29.6213 209.955 29.688C210.04 29.7547 210.107 29.8373 210.155 29.936C210.205 30.0347 210.231 30.14 210.231 30.252C210.231 30.3933 210.195 30.5213 210.123 30.636C210.051 30.748 209.945 30.8373 209.807 30.904C209.671 30.968 209.509 31 209.323 31H208.283V28.212H209.283C209.472 28.212 209.633 28.244 209.767 28.308C209.9 28.3693 210 28.4533 210.067 28.56C210.133 28.6667 210.167 28.7867 210.167 28.92C210.167 29.0853 210.121 29.2227 210.031 29.332C209.943 29.4387 209.825 29.516 209.679 29.564ZM208.647 29.416H209.259C209.429 29.416 209.561 29.376 209.655 29.296C209.748 29.216 209.795 29.1053 209.795 28.964C209.795 28.8227 209.748 28.712 209.655 28.632C209.561 28.552 209.427 28.512 209.251 28.512H208.647V29.416ZM209.291 30.7C209.472 30.7 209.613 30.6573 209.715 30.572C209.816 30.4867 209.867 30.368 209.867 30.216C209.867 30.0613 209.813 29.94 209.707 29.852C209.6 29.7613 209.457 29.716 209.279 29.716H208.647V30.7H209.291ZM210.6 29.896C210.6 29.672 210.645 29.476 210.736 29.308C210.826 29.1373 210.95 29.0053 211.108 28.912C211.268 28.8187 211.445 28.772 211.64 28.772C211.832 28.772 211.998 28.8133 212.14 28.896C212.281 28.9787 212.386 29.0827 212.456 29.208V28.808H212.824V31H212.456V30.592C212.384 30.72 212.276 30.8267 212.132 30.912C211.99 30.9947 211.825 31.036 211.636 31.036C211.441 31.036 211.265 30.988 211.108 30.892C210.95 30.796 210.826 30.6613 210.736 30.488C210.645 30.3147 210.6 30.1173 210.6 29.896ZM212.456 29.9C212.456 29.7347 212.422 29.5907 212.356 29.468C212.289 29.3453 212.198 29.252 212.084 29.188C211.972 29.1213 211.848 29.088 211.712 29.088C211.576 29.088 211.452 29.12 211.34 29.184C211.228 29.248 211.138 29.3413 211.072 29.464C211.005 29.5867 210.972 29.7307 210.972 29.896C210.972 30.064 211.005 30.2107 211.072 30.336C211.138 30.4587 211.228 30.5533 211.34 30.62C211.452 30.684 211.576 30.716 211.712 30.716C211.848 30.716 211.972 30.684 212.084 30.62C212.198 30.5533 212.289 30.4587 212.356 30.336C212.422 30.2107 212.456 30.0653 212.456 29.9ZM214.215 31.036C214.047 31.036 213.896 31.008 213.763 30.952C213.63 30.8933 213.524 30.8133 213.447 30.712C213.37 30.608 213.327 30.4893 213.319 30.356H213.695C213.706 30.4653 213.756 30.5547 213.847 30.624C213.94 30.6933 214.062 30.728 214.211 30.728C214.35 30.728 214.459 30.6973 214.539 30.636C214.619 30.5747 214.659 30.4973 214.659 30.404C214.659 30.308 214.616 30.2373 214.531 30.192C214.446 30.144 214.314 30.0973 214.135 30.052C213.972 30.0093 213.839 29.9667 213.735 29.924C213.634 29.8787 213.546 29.8133 213.471 29.728C213.399 29.64 213.363 29.5253 213.363 29.384C213.363 29.272 213.396 29.1693 213.463 29.076C213.53 28.9827 213.624 28.9093 213.747 28.856C213.87 28.8 214.01 28.772 214.167 28.772C214.41 28.772 214.606 28.8333 214.755 28.956C214.904 29.0787 214.984 29.2467 214.995 29.46H214.631C214.623 29.3453 214.576 29.2533 214.491 29.184C214.408 29.1147 214.296 29.08 214.155 29.08C214.024 29.08 213.92 29.108 213.843 29.164C213.766 29.22 213.727 29.2933 213.727 29.384C213.727 29.456 213.75 29.516 213.795 29.564C213.843 29.6093 213.902 29.6467 213.971 29.676C214.043 29.7027 214.142 29.7333 214.267 29.768C214.424 29.8107 214.552 29.8533 214.651 29.896C214.75 29.936 214.834 29.9973 214.903 30.08C214.975 30.1627 215.012 30.2707 215.015 30.404C215.015 30.524 214.982 30.632 214.915 30.728C214.848 30.824 214.754 30.9 214.631 30.956C214.511 31.0093 214.372 31.036 214.215 31.036ZM217.529 29.82C217.529 29.8893 217.525 29.9627 217.517 30.04H215.765C215.778 30.256 215.851 30.4253 215.985 30.548C216.121 30.668 216.285 30.728 216.477 30.728C216.634 30.728 216.765 30.692 216.869 30.62C216.975 30.5453 217.05 30.4467 217.093 30.324H217.485C217.426 30.5347 217.309 30.7067 217.133 30.84C216.957 30.9707 216.738 31.036 216.477 31.036C216.269 31.036 216.082 30.9893 215.917 30.896C215.754 30.8027 215.626 30.6707 215.533 30.5C215.439 30.3267 215.393 30.1267 215.393 29.9C215.393 29.6733 215.438 29.4747 215.529 29.304C215.619 29.1333 215.746 29.0027 215.909 28.912C216.074 28.8187 216.263 28.772 216.477 28.772C216.685 28.772 216.869 28.8173 217.029 28.908C217.189 28.9987 217.311 29.124 217.397 29.284C217.485 29.4413 217.529 29.62 217.529 29.82ZM217.153 29.744C217.153 29.6053 217.122 29.4867 217.061 29.388C216.999 29.2867 216.915 29.2107 216.809 29.16C216.705 29.1067 216.589 29.08 216.461 29.08C216.277 29.08 216.119 29.1387 215.989 29.256C215.861 29.3733 215.787 29.536 215.769 29.744H217.153ZM217.873 29.896C217.873 29.672 217.919 29.476 218.009 29.308C218.1 29.1373 218.224 29.0053 218.381 28.912C218.541 28.8187 218.72 28.772 218.917 28.772C219.088 28.772 219.247 28.812 219.393 28.892C219.54 28.9693 219.652 29.072 219.729 29.2V28.04H220.097V31H219.729V30.588C219.657 30.7187 219.551 30.8267 219.409 30.912C219.268 30.9947 219.103 31.036 218.913 31.036C218.719 31.036 218.541 30.988 218.381 30.892C218.224 30.796 218.1 30.6613 218.009 30.488C217.919 30.3147 217.873 30.1173 217.873 29.896ZM219.729 29.9C219.729 29.7347 219.696 29.5907 219.629 29.468C219.563 29.3453 219.472 29.252 219.357 29.188C219.245 29.1213 219.121 29.088 218.985 29.088C218.849 29.088 218.725 29.12 218.613 29.184C218.501 29.248 218.412 29.3413 218.345 29.464C218.279 29.5867 218.245 29.7307 218.245 29.896C218.245 30.064 218.279 30.2107 218.345 30.336C218.412 30.4587 218.501 30.5533 218.613 30.62C218.725 30.684 218.849 30.716 218.985 30.716C219.121 30.716 219.245 30.684 219.357 30.62C219.472 30.5533 219.563 30.4587 219.629 30.336C219.696 30.2107 219.729 30.0653 219.729 29.9ZM223.427 30.38H222.211L221.987 31H221.603L222.611 28.228H223.031L224.035 31H223.651L223.427 30.38ZM223.323 30.084L222.819 28.676L222.315 30.084H223.323ZM224.338 29.9C224.338 29.6733 224.383 29.476 224.474 29.308C224.565 29.1373 224.69 29.0053 224.85 28.912C225.013 28.8187 225.198 28.772 225.406 28.772C225.675 28.772 225.897 28.8373 226.07 28.968C226.246 29.0987 226.362 29.28 226.418 29.512H226.026C225.989 29.3787 225.915 29.2733 225.806 29.196C225.699 29.1187 225.566 29.08 225.406 29.08C225.198 29.08 225.03 29.152 224.902 29.296C224.774 29.4373 224.71 29.6387 224.71 29.9C224.71 30.164 224.774 30.368 224.902 30.512C225.03 30.656 225.198 30.728 225.406 30.728C225.566 30.728 225.699 30.6907 225.806 30.616C225.913 30.5413 225.986 30.4347 226.026 30.296H226.418C226.359 30.52 226.242 30.7 226.066 30.836C225.89 30.9693 225.67 31.036 225.406 31.036C225.198 31.036 225.013 30.9893 224.85 30.896C224.69 30.8027 224.565 30.6707 224.474 30.5C224.383 30.3293 224.338 30.1293 224.338 29.9ZM226.768 29.9C226.768 29.6733 226.813 29.476 226.904 29.308C226.994 29.1373 227.12 29.0053 227.28 28.912C227.442 28.8187 227.628 28.772 227.836 28.772C228.105 28.772 228.326 28.8373 228.5 28.968C228.676 29.0987 228.792 29.28 228.848 29.512H228.456C228.418 29.3787 228.345 29.2733 228.236 29.196C228.129 29.1187 227.996 29.08 227.836 29.08C227.628 29.08 227.46 29.152 227.332 29.296C227.204 29.4373 227.14 29.6387 227.14 29.9C227.14 30.164 227.204 30.368 227.332 30.512C227.46 30.656 227.628 30.728 227.836 30.728C227.996 30.728 228.129 30.6907 228.236 30.616C228.342 30.5413 228.416 30.4347 228.456 30.296H228.848C228.789 30.52 228.672 30.7 228.496 30.836C228.32 30.9693 228.1 31.036 227.836 31.036C227.628 31.036 227.442 30.9893 227.28 30.896C227.12 30.8027 226.994 30.6707 226.904 30.5C226.813 30.3293 226.768 30.1293 226.768 29.9ZM231.333 29.82C231.333 29.8893 231.329 29.9627 231.321 30.04H229.569C229.583 30.256 229.656 30.4253 229.789 30.548C229.925 30.668 230.089 30.728 230.281 30.728C230.439 30.728 230.569 30.692 230.673 30.62C230.78 30.5453 230.855 30.4467 230.897 30.324H231.289C231.231 30.5347 231.113 30.7067 230.937 30.84C230.761 30.9707 230.543 31.036 230.281 31.036C230.073 31.036 229.887 30.9893 229.721 30.896C229.559 30.8027 229.431 30.6707 229.337 30.5C229.244 30.3267 229.197 30.1267 229.197 29.9C229.197 29.6733 229.243 29.4747 229.333 29.304C229.424 29.1333 229.551 29.0027 229.713 28.912C229.879 28.8187 230.068 28.772 230.281 28.772C230.489 28.772 230.673 28.8173 230.833 28.908C230.993 28.9987 231.116 29.124 231.201 29.284C231.289 29.4413 231.333 29.62 231.333 29.82ZM230.957 29.744C230.957 29.6053 230.927 29.4867 230.865 29.388C230.804 29.2867 230.72 29.2107 230.613 29.16C230.509 29.1067 230.393 29.08 230.265 29.08C230.081 29.08 229.924 29.1387 229.793 29.256C229.665 29.3733 229.592 29.536 229.573 29.744H230.957ZM232.59 31.036C232.422 31.036 232.271 31.008 232.138 30.952C232.005 30.8933 231.899 30.8133 231.822 30.712C231.745 30.608 231.702 30.4893 231.694 30.356H232.07C232.081 30.4653 232.131 30.5547 232.222 30.624C232.315 30.6933 232.437 30.728 232.586 30.728C232.725 30.728 232.834 30.6973 232.914 30.636C232.994 30.5747 233.034 30.4973 233.034 30.404C233.034 30.308 232.991 30.2373 232.906 30.192C232.821 30.144 232.689 30.0973 232.51 30.052C232.347 30.0093 232.214 29.9667 232.11 29.924C232.009 29.8787 231.921 29.8133 231.846 29.728C231.774 29.64 231.738 29.5253 231.738 29.384C231.738 29.272 231.771 29.1693 231.838 29.076C231.905 28.9827 231.999 28.9093 232.122 28.856C232.245 28.8 232.385 28.772 232.542 28.772C232.785 28.772 232.981 28.8333 233.13 28.956C233.279 29.0787 233.359 29.2467 233.37 29.46H233.006C232.998 29.3453 232.951 29.2533 232.866 29.184C232.783 29.1147 232.671 29.08 232.53 29.08C232.399 29.08 232.295 29.108 232.218 29.164C232.141 29.22 232.102 29.2933 232.102 29.384C232.102 29.456 232.125 29.516 232.17 29.564C232.218 29.6093 232.277 29.6467 232.346 29.676C232.418 29.7027 232.517 29.7333 232.642 29.768C232.799 29.8107 232.927 29.8533 233.026 29.896C233.125 29.936 233.209 29.9973 233.278 30.08C233.35 30.1627 233.387 30.2707 233.39 30.404C233.39 30.524 233.357 30.632 233.29 30.728C233.223 30.824 233.129 30.9 233.006 30.956C232.886 31.0093 232.747 31.036 232.59 31.036ZM234.68 31.036C234.512 31.036 234.361 31.008 234.228 30.952C234.094 30.8933 233.989 30.8133 233.912 30.712C233.834 30.608 233.792 30.4893 233.784 30.356H234.16C234.17 30.4653 234.221 30.5547 234.312 30.624C234.405 30.6933 234.526 30.728 234.676 30.728C234.814 30.728 234.924 30.6973 235.004 30.636C235.084 30.5747 235.124 30.4973 235.124 30.404C235.124 30.308 235.081 30.2373 234.996 30.192C234.91 30.144 234.778 30.0973 234.6 30.052C234.437 30.0093 234.304 29.9667 234.2 29.924C234.098 29.8787 234.01 29.8133 233.936 29.728C233.864 29.64 233.828 29.5253 233.828 29.384C233.828 29.272 233.861 29.1693 233.928 29.076C233.994 28.9827 234.089 28.9093 234.212 28.856C234.334 28.8 234.474 28.772 234.632 28.772C234.874 28.772 235.07 28.8333 235.22 28.956C235.369 29.0787 235.449 29.2467 235.46 29.46H235.096C235.088 29.3453 235.041 29.2533 234.956 29.184C234.873 29.1147 234.761 29.08 234.62 29.08C234.489 29.08 234.385 29.108 234.308 29.164C234.23 29.22 234.192 29.2933 234.192 29.384C234.192 29.456 234.214 29.516 234.26 29.564C234.308 29.6093 234.366 29.6467 234.436 29.676C234.508 29.7027 234.606 29.7333 234.732 29.768C234.889 29.8107 235.017 29.8533 235.116 29.896C235.214 29.936 235.298 29.9973 235.368 30.08C235.44 30.1627 235.477 30.2707 235.48 30.404C235.48 30.524 235.446 30.632 235.38 30.728C235.313 30.824 235.218 30.9 235.096 30.956C234.976 31.0093 234.837 31.036 234.68 31.036ZM209.322 35.604C209.322 35.332 209.384 35.088 209.506 34.872C209.629 34.6533 209.796 34.4827 210.006 34.36C210.22 34.2373 210.456 34.176 210.714 34.176C211.018 34.176 211.284 34.2493 211.51 34.396C211.737 34.5427 211.902 34.7507 212.006 35.02H211.57C211.493 34.852 211.381 34.7227 211.234 34.632C211.09 34.5413 210.917 34.496 210.714 34.496C210.52 34.496 210.345 34.5413 210.19 34.632C210.036 34.7227 209.914 34.852 209.826 35.02C209.738 35.1853 209.694 35.38 209.694 35.604C209.694 35.8253 209.738 36.02 209.826 36.188C209.914 36.3533 210.036 36.4813 210.19 36.572C210.345 36.6627 210.52 36.708 210.714 36.708C210.917 36.708 211.09 36.664 211.234 36.576C211.381 36.4853 211.493 36.356 211.57 36.188H212.006C211.902 36.4547 211.737 36.6613 211.51 36.808C211.284 36.952 211.018 37.024 210.714 37.024C210.456 37.024 210.22 36.964 210.006 36.844C209.796 36.7213 209.629 36.552 209.506 36.336C209.384 36.12 209.322 35.876 209.322 35.604ZM213.504 37.036C213.299 37.036 213.112 36.9893 212.944 36.896C212.779 36.8027 212.648 36.6707 212.552 36.5C212.459 36.3267 212.412 36.1267 212.412 35.9C212.412 35.676 212.46 35.4787 212.556 35.308C212.655 35.1347 212.788 35.0027 212.956 34.912C213.124 34.8187 213.312 34.772 213.52 34.772C213.728 34.772 213.916 34.8187 214.084 34.912C214.252 35.0027 214.384 35.1333 214.48 35.304C214.579 35.4747 214.628 35.6733 214.628 35.9C214.628 36.1267 214.578 36.3267 214.476 36.5C214.378 36.6707 214.243 36.8027 214.072 36.896C213.902 36.9893 213.712 37.036 213.504 37.036ZM213.504 36.716C213.635 36.716 213.758 36.6853 213.872 36.624C213.987 36.5627 214.079 36.4707 214.148 36.348C214.22 36.2253 214.256 36.076 214.256 35.9C214.256 35.724 214.222 35.5747 214.152 35.452C214.083 35.3293 213.992 35.2387 213.88 35.18C213.768 35.1187 213.647 35.088 213.516 35.088C213.383 35.088 213.26 35.1187 213.148 35.18C213.039 35.2387 212.951 35.3293 212.884 35.452C212.818 35.5747 212.784 35.724 212.784 35.9C212.784 36.0787 212.816 36.2293 212.88 36.352C212.947 36.4747 213.035 36.5667 213.144 36.628C213.254 36.6867 213.374 36.716 213.504 36.716ZM216.175 34.768C216.441 34.768 216.657 34.8493 216.823 35.012C216.988 35.172 217.071 35.404 217.071 35.708V37H216.711V35.76C216.711 35.5413 216.656 35.3747 216.547 35.26C216.437 35.1427 216.288 35.084 216.099 35.084C215.907 35.084 215.753 35.144 215.639 35.264C215.527 35.384 215.471 35.5587 215.471 35.788V37H215.107V34.808H215.471V35.12C215.543 35.008 215.64 34.9213 215.763 34.86C215.888 34.7987 216.025 34.768 216.175 34.768ZM218.109 35.108V36.4C218.109 36.5067 218.132 36.5827 218.177 36.628C218.223 36.6707 218.301 36.692 218.413 36.692H218.681V37H218.353C218.151 37 217.999 36.9533 217.897 36.86C217.796 36.7667 217.745 36.6133 217.745 36.4V35.108H217.461V34.808H217.745V34.256H218.109V34.808H218.681V35.108H218.109ZM219.486 35.164C219.55 35.0387 219.641 34.9413 219.758 34.872C219.878 34.8027 220.024 34.768 220.194 34.768V35.144H220.098C219.69 35.144 219.486 35.3653 219.486 35.808V37H219.122V34.808H219.486V35.164ZM221.571 37.036C221.365 37.036 221.179 36.9893 221.011 36.896C220.845 36.8027 220.715 36.6707 220.619 36.5C220.525 36.3267 220.479 36.1267 220.479 35.9C220.479 35.676 220.527 35.4787 220.623 35.308C220.721 35.1347 220.855 35.0027 221.023 34.912C221.191 34.8187 221.379 34.772 221.587 34.772C221.795 34.772 221.983 34.8187 222.151 34.912C222.319 35.0027 222.451 35.1333 222.547 35.304C222.645 35.4747 222.695 35.6733 222.695 35.9C222.695 36.1267 222.644 36.3267 222.543 36.5C222.444 36.6707 222.309 36.8027 222.139 36.896C221.968 36.9893 221.779 37.036 221.571 37.036ZM221.571 36.716C221.701 36.716 221.824 36.6853 221.939 36.624C222.053 36.5627 222.145 36.4707 222.215 36.348C222.287 36.2253 222.323 36.076 222.323 35.9C222.323 35.724 222.288 35.5747 222.219 35.452C222.149 35.3293 222.059 35.2387 221.947 35.18C221.835 35.1187 221.713 35.088 221.583 35.088C221.449 35.088 221.327 35.1187 221.215 35.18C221.105 35.2387 221.017 35.3293 220.951 35.452C220.884 35.5747 220.851 35.724 220.851 35.9C220.851 36.0787 220.883 36.2293 220.947 36.352C221.013 36.4747 221.101 36.5667 221.211 36.628C221.32 36.6867 221.44 36.716 221.571 36.716ZM223.537 34.04V37H223.173V34.04H223.537Z" fill="#10B981"/>
<rect x="139" y="22" width="45" height="22" rx="11" fill="#10B981"/>
<path d="M113.421 31.028C113.237 31.028 113.071 30.996 112.925 30.932C112.781 30.8653 112.667 30.7747 112.585 30.66C112.502 30.5427 112.459 30.408 112.457 30.256H112.845C112.858 30.3867 112.911 30.4973 113.005 30.588C113.101 30.676 113.239 30.72 113.421 30.72C113.594 30.72 113.73 30.6773 113.829 30.592C113.93 30.504 113.981 30.392 113.981 30.256C113.981 30.1493 113.951 30.0627 113.893 29.996C113.834 29.9293 113.761 29.8787 113.673 29.844C113.585 29.8093 113.466 29.772 113.317 29.732C113.133 29.684 112.985 29.636 112.873 29.588C112.763 29.54 112.669 29.4653 112.589 29.364C112.511 29.26 112.473 29.1213 112.473 28.948C112.473 28.796 112.511 28.6613 112.589 28.544C112.666 28.4267 112.774 28.336 112.913 28.272C113.054 28.208 113.215 28.176 113.397 28.176C113.658 28.176 113.871 28.2413 114.037 28.372C114.205 28.5027 114.299 28.676 114.321 28.892H113.921C113.907 28.7853 113.851 28.692 113.753 28.612C113.654 28.5293 113.523 28.488 113.361 28.488C113.209 28.488 113.085 28.528 112.989 28.608C112.893 28.6853 112.845 28.7947 112.845 28.936C112.845 29.0373 112.873 29.12 112.929 29.184C112.987 29.248 113.058 29.2973 113.141 29.332C113.226 29.364 113.345 29.4013 113.497 29.444C113.681 29.4947 113.829 29.5453 113.941 29.596C114.053 29.644 114.149 29.72 114.229 29.824C114.309 29.9253 114.349 30.064 114.349 30.24C114.349 30.376 114.313 30.504 114.241 30.624C114.169 30.744 114.062 30.8413 113.921 30.916C113.779 30.9907 113.613 31.028 113.421 31.028ZM115.248 28.508V29.44H116.264V29.74H115.248V30.7H116.384V31H114.884V28.208H116.384V28.508H115.248ZM118.199 31.028C117.94 31.028 117.704 30.968 117.491 30.848C117.278 30.7253 117.108 30.556 116.983 30.34C116.86 30.1213 116.799 29.876 116.799 29.604C116.799 29.332 116.86 29.088 116.983 28.872C117.108 28.6533 117.278 28.484 117.491 28.364C117.704 28.2413 117.94 28.18 118.199 28.18C118.46 28.18 118.698 28.2413 118.911 28.364C119.124 28.484 119.292 28.652 119.415 28.868C119.538 29.084 119.599 29.3293 119.599 29.604C119.599 29.8787 119.538 30.124 119.415 30.34C119.292 30.556 119.124 30.7253 118.911 30.848C118.698 30.968 118.46 31.028 118.199 31.028ZM118.199 30.712C118.394 30.712 118.568 30.6667 118.723 30.576C118.88 30.4853 119.003 30.356 119.091 30.188C119.182 30.02 119.227 29.8253 119.227 29.604C119.227 29.38 119.182 29.1853 119.091 29.02C119.003 28.852 118.882 28.7227 118.727 28.632C118.572 28.5413 118.396 28.496 118.199 28.496C118.002 28.496 117.826 28.5413 117.671 28.632C117.516 28.7227 117.394 28.852 117.303 29.02C117.215 29.1853 117.171 29.38 117.171 29.604C117.171 29.8253 117.215 30.02 117.303 30.188C117.394 30.356 117.516 30.4853 117.671 30.576C117.828 30.6667 118.004 30.712 118.199 30.712ZM105.531 34.232V37H105.167V34.936L104.247 37H103.991L103.067 34.932V37H102.703V34.232H103.095L104.119 36.52L105.143 34.232H105.531ZM106.012 35.896C106.012 35.672 106.057 35.476 106.148 35.308C106.239 35.1373 106.363 35.0053 106.52 34.912C106.68 34.8187 106.857 34.772 107.052 34.772C107.244 34.772 107.411 34.8133 107.552 34.896C107.693 34.9787 107.799 35.0827 107.868 35.208V34.808H108.236V37H107.868V36.592C107.796 36.72 107.688 36.8267 107.544 36.912C107.403 36.9947 107.237 37.036 107.048 37.036C106.853 37.036 106.677 36.988 106.52 36.892C106.363 36.796 106.239 36.6613 106.148 36.488C106.057 36.3147 106.012 36.1173 106.012 35.896ZM107.868 35.9C107.868 35.7347 107.835 35.5907 107.768 35.468C107.701 35.3453 107.611 35.252 107.496 35.188C107.384 35.1213 107.26 35.088 107.124 35.088C106.988 35.088 106.864 35.12 106.752 35.184C106.64 35.248 106.551 35.3413 106.484 35.464C106.417 35.5867 106.384 35.7307 106.384 35.896C106.384 36.064 106.417 36.2107 106.484 36.336C106.551 36.4587 106.64 36.5533 106.752 36.62C106.864 36.684 106.988 36.716 107.124 36.716C107.26 36.716 107.384 36.684 107.496 36.62C107.611 36.5533 107.701 36.4587 107.768 36.336C107.835 36.2107 107.868 36.0653 107.868 35.9ZM109.919 34.768C110.186 34.768 110.402 34.8493 110.567 35.012C110.732 35.172 110.815 35.404 110.815 35.708V37H110.455V35.76C110.455 35.5413 110.4 35.3747 110.291 35.26C110.182 35.1427 110.032 35.084 109.843 35.084C109.651 35.084 109.498 35.144 109.383 35.264C109.271 35.384 109.215 35.5587 109.215 35.788V37H108.851V34.808H109.215V35.12C109.287 35.008 109.384 34.9213 109.507 34.86C109.632 34.7987 109.77 34.768 109.919 34.768ZM111.274 35.896C111.274 35.672 111.319 35.476 111.41 35.308C111.5 35.1373 111.624 35.0053 111.782 34.912C111.942 34.8187 112.119 34.772 112.314 34.772C112.506 34.772 112.672 34.8133 112.814 34.896C112.955 34.9787 113.06 35.0827 113.13 35.208V34.808H113.498V37H113.13V36.592C113.058 36.72 112.95 36.8267 112.806 36.912C112.664 36.9947 112.499 37.036 112.31 37.036C112.115 37.036 111.939 36.988 111.782 36.892C111.624 36.796 111.5 36.6613 111.41 36.488C111.319 36.3147 111.274 36.1173 111.274 35.896ZM113.13 35.9C113.13 35.7347 113.096 35.5907 113.03 35.468C112.963 35.3453 112.872 35.252 112.758 35.188C112.646 35.1213 112.522 35.088 112.386 35.088C112.25 35.088 112.126 35.12 112.014 35.184C111.902 35.248 111.812 35.3413 111.746 35.464C111.679 35.5867 111.646 35.7307 111.646 35.896C111.646 36.064 111.679 36.2107 111.746 36.336C111.812 36.4587 111.902 36.5533 112.014 36.62C112.126 36.684 112.25 36.716 112.386 36.716C112.522 36.716 112.646 36.684 112.758 36.62C112.872 36.5533 112.963 36.4587 113.03 36.336C113.096 36.2107 113.13 36.0653 113.13 35.9ZM115.017 34.772C115.206 34.772 115.371 34.8133 115.513 34.896C115.657 34.9787 115.763 35.0827 115.833 35.208V34.808H116.201V37.048C116.201 37.248 116.158 37.4253 116.073 37.58C115.987 37.7373 115.865 37.86 115.705 37.948C115.547 38.036 115.363 38.08 115.153 38.08C114.865 38.08 114.625 38.012 114.433 37.876C114.241 37.74 114.127 37.5547 114.093 37.32H114.453C114.493 37.4533 114.575 37.56 114.701 37.64C114.826 37.7227 114.977 37.764 115.153 37.764C115.353 37.764 115.515 37.7013 115.641 37.576C115.769 37.4507 115.833 37.2747 115.833 37.048V36.588C115.761 36.716 115.654 36.8227 115.513 36.908C115.371 36.9933 115.206 37.036 115.017 37.036C114.822 37.036 114.645 36.988 114.485 36.892C114.327 36.796 114.203 36.6613 114.113 36.488C114.022 36.3147 113.977 36.1173 113.977 35.896C113.977 35.672 114.022 35.476 114.113 35.308C114.203 35.1373 114.327 35.0053 114.485 34.912C114.645 34.8187 114.822 34.772 115.017 34.772ZM115.833 35.9C115.833 35.7347 115.799 35.5907 115.733 35.468C115.666 35.3453 115.575 35.252 115.461 35.188C115.349 35.1213 115.225 35.088 115.089 35.088C114.953 35.088 114.829 35.12 114.717 35.184C114.605 35.248 114.515 35.3413 114.449 35.464C114.382 35.5867 114.349 35.7307 114.349 35.896C114.349 36.064 114.382 36.2107 114.449 36.336C114.515 36.4587 114.605 36.5533 114.717 36.62C114.829 36.684 114.953 36.716 115.089 36.716C115.225 36.716 115.349 36.684 115.461 36.62C115.575 36.5533 115.666 36.4587 115.733 36.336C115.799 36.2107 115.833 36.0653 115.833 35.9ZM118.816 35.82C118.816 35.8893 118.812 35.9627 118.804 36.04H117.052C117.065 36.256 117.138 36.4253 117.272 36.548C117.408 36.668 117.572 36.728 117.764 36.728C117.921 36.728 118.052 36.692 118.156 36.62C118.262 36.5453 118.337 36.4467 118.38 36.324H118.772C118.713 36.5347 118.596 36.7067 118.42 36.84C118.244 36.9707 118.025 37.036 117.764 37.036C117.556 37.036 117.369 36.9893 117.204 36.896C117.041 36.8027 116.913 36.6707 116.82 36.5C116.726 36.3267 116.68 36.1267 116.68 35.9C116.68 35.6733 116.725 35.4747 116.816 35.304C116.906 35.1333 117.033 35.0027 117.196 34.912C117.361 34.8187 117.55 34.772 117.764 34.772C117.972 34.772 118.156 34.8173 118.316 34.908C118.476 34.9987 118.598 35.124 118.684 35.284C118.772 35.4413 118.816 35.62 118.816 35.82ZM118.44 35.744C118.44 35.6053 118.409 35.4867 118.348 35.388C118.286 35.2867 118.202 35.2107 118.096 35.16C117.992 35.1067 117.876 35.08 117.748 35.08C117.564 35.08 117.406 35.1387 117.276 35.256C117.148 35.3733 117.074 35.536 117.056 35.744H118.44ZM121.932 34.768C122.103 34.768 122.255 34.804 122.388 34.876C122.522 34.9453 122.627 35.0507 122.704 35.192C122.782 35.3333 122.82 35.5053 122.82 35.708V37H122.46V35.76C122.46 35.5413 122.406 35.3747 122.296 35.26C122.19 35.1427 122.044 35.084 121.86 35.084C121.671 35.084 121.52 35.1453 121.408 35.268C121.296 35.388 121.24 35.5627 121.24 35.792V37H120.88V35.76C120.88 35.5413 120.826 35.3747 120.716 35.26C120.61 35.1427 120.464 35.084 120.28 35.084C120.091 35.084 119.94 35.1453 119.828 35.268C119.716 35.388 119.66 35.5627 119.66 35.792V37H119.296V34.808H119.66V35.124C119.732 35.0093 119.828 34.9213 119.948 34.86C120.071 34.7987 120.206 34.768 120.352 34.768C120.536 34.768 120.699 34.8093 120.84 34.892C120.982 34.9747 121.087 35.096 121.156 35.256C121.218 35.1013 121.319 34.9813 121.46 34.896C121.602 34.8107 121.759 34.768 121.932 34.768ZM125.417 35.82C125.417 35.8893 125.413 35.9627 125.405 36.04H123.653C123.667 36.256 123.74 36.4253 123.873 36.548C124.009 36.668 124.173 36.728 124.365 36.728C124.523 36.728 124.653 36.692 124.757 36.62C124.864 36.5453 124.939 36.4467 124.981 36.324H125.373C125.315 36.5347 125.197 36.7067 125.021 36.84C124.845 36.9707 124.627 37.036 124.365 37.036C124.157 37.036 123.971 36.9893 123.805 36.896C123.643 36.8027 123.515 36.6707 123.421 36.5C123.328 36.3267 123.281 36.1267 123.281 35.9C123.281 35.6733 123.327 35.4747 123.417 35.304C123.508 35.1333 123.635 35.0027 123.797 34.912C123.963 34.8187 124.152 34.772 124.365 34.772C124.573 34.772 124.757 34.8173 124.917 34.908C125.077 34.9987 125.2 35.124 125.285 35.284C125.373 35.4413 125.417 35.62 125.417 35.82ZM125.041 35.744C125.041 35.6053 125.011 35.4867 124.949 35.388C124.888 35.2867 124.804 35.2107 124.697 35.16C124.593 35.1067 124.477 35.08 124.349 35.08C124.165 35.08 124.008 35.1387 123.877 35.256C123.749 35.3733 123.676 35.536 123.657 35.744H125.041ZM126.966 34.768C127.233 34.768 127.449 34.8493 127.614 35.012C127.779 35.172 127.862 35.404 127.862 35.708V37H127.502V35.76C127.502 35.5413 127.447 35.3747 127.338 35.26C127.229 35.1427 127.079 35.084 126.89 35.084C126.698 35.084 126.545 35.144 126.43 35.264C126.318 35.384 126.262 35.5587 126.262 35.788V37H125.898V34.808H126.262V35.12C126.334 35.008 126.431 34.9213 126.554 34.86C126.679 34.7987 126.817 34.768 126.966 34.768ZM128.9 35.108V36.4C128.9 36.5067 128.923 36.5827 128.968 36.628C129.014 36.6707 129.092 36.692 129.204 36.692H129.472V37H129.144C128.942 37 128.79 36.9533 128.688 36.86C128.587 36.7667 128.536 36.6133 128.536 36.4V35.108H128.252V34.808H128.536V34.256H128.9V34.808H129.472V35.108H128.9Z" fill="#10B981"/>
<path d="M151.386 29.564C151.487 29.58 151.579 29.6213 151.662 29.688C151.747 29.7547 151.814 29.8373 151.862 29.936C151.912 30.0347 151.938 30.14 151.938 30.252C151.938 30.3933 151.902 30.5213 151.83 30.636C151.758 30.748 151.652 30.8373 151.514 30.904C151.378 30.968 151.216 31 151.03 31H149.99V28.212H150.99C151.179 28.212 151.34 28.244 151.474 28.308C151.607 28.3693 151.707 28.4533 151.774 28.56C151.84 28.6667 151.874 28.7867 151.874 28.92C151.874 29.0853 151.828 29.2227 151.738 29.332C151.65 29.4387 151.532 29.516 151.386 29.564ZM150.354 29.416H150.966C151.136 29.416 151.268 29.376 151.362 29.296C151.455 29.216 151.502 29.1053 151.502 28.964C151.502 28.8227 151.455 28.712 151.362 28.632C151.268 28.552 151.134 28.512 150.958 28.512H150.354V29.416ZM150.998 30.7C151.179 30.7 151.32 30.6573 151.422 30.572C151.523 30.4867 151.574 30.368 151.574 30.216C151.574 30.0613 151.52 29.94 151.414 29.852C151.307 29.7613 151.164 29.716 150.986 29.716H150.354V30.7H150.998ZM154.387 28.808V31H154.023V30.676C153.953 30.788 153.856 30.876 153.731 30.94C153.608 31.0013 153.472 31.032 153.323 31.032C153.152 31.032 152.999 30.9973 152.863 30.928C152.727 30.856 152.619 30.7493 152.539 30.608C152.461 30.4667 152.423 30.2947 152.423 30.092V28.808H152.783V30.044C152.783 30.26 152.837 30.4267 152.947 30.544C153.056 30.6587 153.205 30.716 153.395 30.716C153.589 30.716 153.743 30.656 153.855 30.536C153.967 30.416 154.023 30.2413 154.023 30.012V28.808H154.387ZM155.365 28.04V31H155.001V28.04H155.365ZM157.21 31L156.35 30.032V31H155.986V28.04H156.35V29.78L157.194 28.808H157.702L156.67 29.9L157.706 31H157.21ZM160.975 29.028C160.975 29.26 160.895 29.4533 160.735 29.608C160.577 29.76 160.336 29.836 160.011 29.836H159.475V31H159.111V28.212H160.011C160.325 28.212 160.564 28.288 160.727 28.44C160.892 28.592 160.975 28.788 160.975 29.028ZM160.011 29.536C160.213 29.536 160.363 29.492 160.459 29.404C160.555 29.316 160.603 29.1907 160.603 29.028C160.603 28.684 160.405 28.512 160.011 28.512H159.475V29.536H160.011ZM161.791 29.164C161.855 29.0387 161.946 28.9413 162.063 28.872C162.183 28.8027 162.328 28.768 162.499 28.768V29.144H162.403C161.995 29.144 161.791 29.3653 161.791 29.808V31H161.427V28.808H161.791V29.164ZM163.875 31.036C163.67 31.036 163.483 30.9893 163.315 30.896C163.15 30.8027 163.019 30.6707 162.923 30.5C162.83 30.3267 162.783 30.1267 162.783 29.9C162.783 29.676 162.831 29.4787 162.927 29.308C163.026 29.1347 163.159 29.0027 163.327 28.912C163.495 28.8187 163.683 28.772 163.891 28.772C164.099 28.772 164.287 28.8187 164.455 28.912C164.623 29.0027 164.755 29.1333 164.851 29.304C164.95 29.4747 164.999 29.6733 164.999 29.9C164.999 30.1267 164.949 30.3267 164.847 30.5C164.749 30.6707 164.614 30.8027 164.443 30.896C164.273 30.9893 164.083 31.036 163.875 31.036ZM163.875 30.716C164.006 30.716 164.129 30.6853 164.243 30.624C164.358 30.5627 164.45 30.4707 164.519 30.348C164.591 30.2253 164.627 30.076 164.627 29.9C164.627 29.724 164.593 29.5747 164.523 29.452C164.454 29.3293 164.363 29.2387 164.251 29.18C164.139 29.1187 164.018 29.088 163.887 29.088C163.754 29.088 163.631 29.1187 163.519 29.18C163.41 29.2387 163.322 29.3293 163.255 29.452C163.189 29.5747 163.155 29.724 163.155 29.9C163.155 30.0787 163.187 30.2293 163.251 30.352C163.318 30.4747 163.406 30.5667 163.515 30.628C163.625 30.6867 163.745 30.716 163.875 30.716ZM165.342 29.896C165.342 29.672 165.387 29.476 165.478 29.308C165.569 29.1373 165.693 29.0053 165.85 28.912C166.01 28.8187 166.189 28.772 166.386 28.772C166.557 28.772 166.715 28.812 166.862 28.892C167.009 28.9693 167.121 29.072 167.198 29.2V28.04H167.566V31H167.198V30.588C167.126 30.7187 167.019 30.8267 166.878 30.912C166.737 30.9947 166.571 31.036 166.382 31.036C166.187 31.036 166.01 30.988 165.85 30.892C165.693 30.796 165.569 30.6613 165.478 30.488C165.387 30.3147 165.342 30.1173 165.342 29.896ZM167.198 29.9C167.198 29.7347 167.165 29.5907 167.098 29.468C167.031 29.3453 166.941 29.252 166.826 29.188C166.714 29.1213 166.59 29.088 166.454 29.088C166.318 29.088 166.194 29.12 166.082 29.184C165.97 29.248 165.881 29.3413 165.814 29.464C165.747 29.5867 165.714 29.7307 165.714 29.896C165.714 30.064 165.747 30.2107 165.814 30.336C165.881 30.4587 165.97 30.5533 166.082 30.62C166.194 30.684 166.318 30.716 166.454 30.716C166.59 30.716 166.714 30.684 166.826 30.62C166.941 30.5533 167.031 30.4587 167.098 30.336C167.165 30.2107 167.198 30.0653 167.198 29.9ZM170.125 28.808V31H169.761V30.676C169.692 30.788 169.594 30.876 169.469 30.94C169.346 31.0013 169.21 31.032 169.061 31.032C168.89 31.032 168.737 30.9973 168.601 30.928C168.465 30.856 168.357 30.7493 168.277 30.608C168.2 30.4667 168.161 30.2947 168.161 30.092V28.808H168.521V30.044C168.521 30.26 168.576 30.4267 168.685 30.544C168.794 30.6587 168.944 30.716 169.133 30.716C169.328 30.716 169.481 30.656 169.593 30.536C169.705 30.416 169.761 30.2413 169.761 30.012V28.808H170.125ZM170.604 29.9C170.604 29.6733 170.649 29.476 170.74 29.308C170.83 29.1373 170.956 29.0053 171.116 28.912C171.278 28.8187 171.464 28.772 171.672 28.772C171.941 28.772 172.162 28.8373 172.336 28.968C172.512 29.0987 172.628 29.28 172.684 29.512H172.292C172.254 29.3787 172.181 29.2733 172.072 29.196C171.965 29.1187 171.832 29.08 171.672 29.08C171.464 29.08 171.296 29.152 171.168 29.296C171.04 29.4373 170.976 29.6387 170.976 29.9C170.976 30.164 171.04 30.368 171.168 30.512C171.296 30.656 171.464 30.728 171.672 30.728C171.832 30.728 171.965 30.6907 172.072 30.616C172.178 30.5413 172.252 30.4347 172.292 30.296H172.684C172.625 30.52 172.508 30.7 172.332 30.836C172.156 30.9693 171.936 31.036 171.672 31.036C171.464 31.036 171.278 30.9893 171.116 30.896C170.956 30.8027 170.83 30.6707 170.74 30.5C170.649 30.3293 170.604 30.1293 170.604 29.9ZM173.613 29.108V30.4C173.613 30.5067 173.636 30.5827 173.681 30.628C173.727 30.6707 173.805 30.692 173.917 30.692H174.185V31H173.857C173.655 31 173.503 30.9533 173.401 30.86C173.3 30.7667 173.249 30.6133 173.249 30.4V29.108H172.965V28.808H173.249V28.256H173.613V28.808H174.185V29.108H173.613ZM155.488 34.212V35.976C155.488 36.224 155.548 36.408 155.668 36.528C155.791 36.648 155.96 36.708 156.176 36.708C156.39 36.708 156.556 36.648 156.676 36.528C156.799 36.408 156.86 36.224 156.86 35.976V34.212H157.224V35.972C157.224 36.204 157.178 36.4 157.084 36.56C156.991 36.7173 156.864 36.8347 156.704 36.912C156.547 36.9893 156.37 37.028 156.172 37.028C155.975 37.028 155.796 36.9893 155.636 36.912C155.479 36.8347 155.354 36.7173 155.26 36.56C155.17 36.4 155.124 36.204 155.124 35.972V34.212H155.488ZM158.195 35.212C158.267 35.0867 158.374 34.9827 158.515 34.9C158.659 34.8147 158.826 34.772 159.015 34.772C159.21 34.772 159.386 34.8187 159.543 34.912C159.703 35.0053 159.829 35.1373 159.919 35.308C160.01 35.476 160.055 35.672 160.055 35.896C160.055 36.1173 160.01 36.3147 159.919 36.488C159.829 36.6613 159.703 36.796 159.543 36.892C159.386 36.988 159.21 37.036 159.015 37.036C158.829 37.036 158.663 36.9947 158.519 36.912C158.378 36.8267 158.27 36.7213 158.195 36.596V38.04H157.831V34.808H158.195V35.212ZM159.683 35.896C159.683 35.7307 159.65 35.5867 159.583 35.464C159.517 35.3413 159.426 35.248 159.311 35.184C159.199 35.12 159.075 35.088 158.939 35.088C158.806 35.088 158.682 35.1213 158.567 35.188C158.455 35.252 158.365 35.3467 158.295 35.472C158.229 35.5947 158.195 35.7373 158.195 35.9C158.195 36.0653 158.229 36.2107 158.295 36.336C158.365 36.4587 158.455 36.5533 158.567 36.62C158.682 36.684 158.806 36.716 158.939 36.716C159.075 36.716 159.199 36.684 159.311 36.62C159.426 36.5533 159.517 36.4587 159.583 36.336C159.65 36.2107 159.683 36.064 159.683 35.896ZM160.899 34.04V37H160.535V34.04H160.899ZM162.475 37.036C162.27 37.036 162.083 36.9893 161.915 36.896C161.75 36.8027 161.619 36.6707 161.523 36.5C161.43 36.3267 161.383 36.1267 161.383 35.9C161.383 35.676 161.431 35.4787 161.527 35.308C161.626 35.1347 161.759 35.0027 161.927 34.912C162.095 34.8187 162.283 34.772 162.491 34.772C162.699 34.772 162.887 34.8187 163.055 34.912C163.223 35.0027 163.355 35.1333 163.451 35.304C163.55 35.4747 163.599 35.6733 163.599 35.9C163.599 36.1267 163.548 36.3267 163.447 36.5C163.348 36.6707 163.214 36.8027 163.043 36.896C162.872 36.9893 162.683 37.036 162.475 37.036ZM162.475 36.716C162.606 36.716 162.728 36.6853 162.843 36.624C162.958 36.5627 163.05 36.4707 163.119 36.348C163.191 36.2253 163.227 36.076 163.227 35.9C163.227 35.724 163.192 35.5747 163.123 35.452C163.054 35.3293 162.963 35.2387 162.851 35.18C162.739 35.1187 162.618 35.088 162.487 35.088C162.354 35.088 162.231 35.1187 162.119 35.18C162.01 35.2387 161.922 35.3293 161.855 35.452C161.788 35.5747 161.755 35.724 161.755 35.9C161.755 36.0787 161.787 36.2293 161.851 36.352C161.918 36.4747 162.006 36.5667 162.115 36.628C162.224 36.6867 162.344 36.716 162.475 36.716ZM163.942 35.896C163.942 35.672 163.987 35.476 164.078 35.308C164.168 35.1373 164.292 35.0053 164.45 34.912C164.61 34.8187 164.787 34.772 164.982 34.772C165.174 34.772 165.34 34.8133 165.482 34.896C165.623 34.9787 165.728 35.0827 165.798 35.208V34.808H166.166V37H165.798V36.592C165.726 36.72 165.618 36.8267 165.474 36.912C165.332 36.9947 165.167 37.036 164.978 37.036C164.783 37.036 164.607 36.988 164.45 36.892C164.292 36.796 164.168 36.6613 164.078 36.488C163.987 36.3147 163.942 36.1173 163.942 35.896ZM165.798 35.9C165.798 35.7347 165.764 35.5907 165.698 35.468C165.631 35.3453 165.54 35.252 165.426 35.188C165.314 35.1213 165.19 35.088 165.054 35.088C164.918 35.088 164.794 35.12 164.682 35.184C164.57 35.248 164.48 35.3413 164.414 35.464C164.347 35.5867 164.314 35.7307 164.314 35.896C164.314 36.064 164.347 36.2107 164.414 36.336C164.48 36.4587 164.57 36.5533 164.682 36.62C164.794 36.684 164.918 36.716 165.054 36.716C165.19 36.716 165.314 36.684 165.426 36.62C165.54 36.5533 165.631 36.4587 165.698 36.336C165.764 36.2107 165.798 36.0653 165.798 35.9ZM166.645 35.896C166.645 35.672 166.69 35.476 166.781 35.308C166.871 35.1373 166.995 35.0053 167.153 34.912C167.313 34.8187 167.491 34.772 167.689 34.772C167.859 34.772 168.018 34.812 168.165 34.892C168.311 34.9693 168.423 35.072 168.501 35.2V34.04H168.869V37H168.501V36.588C168.429 36.7187 168.322 36.8267 168.181 36.912C168.039 36.9947 167.874 37.036 167.685 37.036C167.49 37.036 167.313 36.988 167.153 36.892C166.995 36.796 166.871 36.6613 166.781 36.488C166.69 36.3147 166.645 36.1173 166.645 35.896ZM168.501 35.9C168.501 35.7347 168.467 35.5907 168.401 35.468C168.334 35.3453 168.243 35.252 168.129 35.188C168.017 35.1213 167.893 35.088 167.757 35.088C167.621 35.088 167.497 35.12 167.385 35.184C167.273 35.248 167.183 35.3413 167.117 35.464C167.05 35.5867 167.017 35.7307 167.017 35.896C167.017 36.064 167.05 36.2107 167.117 36.336C167.183 36.4587 167.273 36.5533 167.385 36.62C167.497 36.684 167.621 36.716 167.757 36.716C167.893 36.716 168.017 36.684 168.129 36.62C168.243 36.5533 168.334 36.4587 168.401 36.336C168.467 36.2107 168.501 36.0653 168.501 35.9Z" fill="white"/>
<circle cx="81" cy="78" r="2" fill="#9D9D9D"/>
<circle cx="87" cy="78" r="2" fill="#10B981"/>
<circle cx="93" cy="78" r="2" fill="#9D9D9D"/>
<path d="M104.42 220H103.394L101.678 217.402V220H100.652V215.788H101.678L103.394 218.398V215.788H104.42V220ZM106.688 220.048C106.36 220.048 106.064 219.978 105.8 219.838C105.54 219.698 105.334 219.498 105.182 219.238C105.034 218.978 104.96 218.674 104.96 218.326C104.96 217.982 105.036 217.68 105.188 217.42C105.34 217.156 105.548 216.954 105.812 216.814C106.076 216.674 106.372 216.604 106.7 216.604C107.028 216.604 107.324 216.674 107.588 216.814C107.852 216.954 108.06 217.156 108.212 217.42C108.364 217.68 108.44 217.982 108.44 218.326C108.44 218.67 108.362 218.974 108.206 219.238C108.054 219.498 107.844 219.698 107.576 219.838C107.312 219.978 107.016 220.048 106.688 220.048ZM106.688 219.16C106.884 219.16 107.05 219.088 107.186 218.944C107.326 218.8 107.396 218.594 107.396 218.326C107.396 218.058 107.328 217.852 107.192 217.708C107.06 217.564 106.896 217.492 106.7 217.492C106.5 217.492 106.334 217.564 106.202 217.708C106.07 217.848 106.004 218.054 106.004 218.326C106.004 218.594 106.068 218.8 106.196 218.944C106.328 219.088 106.492 219.16 106.688 219.16ZM110.85 219.13V220H110.328C109.956 220 109.666 219.91 109.458 219.73C109.25 219.546 109.146 219.248 109.146 218.836V217.504H108.738V216.652H109.146V215.836H110.172V216.652H110.844V217.504H110.172V218.848C110.172 218.948 110.196 219.02 110.244 219.064C110.292 219.108 110.372 219.13 110.484 219.13H110.85ZM114.578 218.272C114.578 218.368 114.572 218.468 114.56 218.572H112.238C112.254 218.78 112.32 218.94 112.436 219.052C112.556 219.16 112.702 219.214 112.874 219.214C113.13 219.214 113.308 219.106 113.408 218.89H114.5C114.444 219.11 114.342 219.308 114.194 219.484C114.05 219.66 113.868 219.798 113.648 219.898C113.428 219.998 113.182 220.048 112.91 220.048C112.582 220.048 112.29 219.978 112.034 219.838C111.778 219.698 111.578 219.498 111.434 219.238C111.29 218.978 111.218 218.674 111.218 218.326C111.218 217.978 111.288 217.674 111.428 217.414C111.572 217.154 111.772 216.954 112.028 216.814C112.284 216.674 112.578 216.604 112.91 216.604C113.234 216.604 113.522 216.672 113.774 216.808C114.026 216.944 114.222 217.138 114.362 217.39C114.506 217.642 114.578 217.936 114.578 218.272ZM113.528 218.002C113.528 217.826 113.468 217.686 113.348 217.582C113.228 217.478 113.078 217.426 112.898 217.426C112.726 217.426 112.58 217.476 112.46 217.576C112.344 217.676 112.272 217.818 112.244 218.002H113.528ZM115.599 220.048C115.419 220.048 115.271 219.996 115.155 219.892C115.043 219.784 114.987 219.652 114.987 219.496C114.987 219.336 115.043 219.202 115.155 219.094C115.271 218.986 115.419 218.932 115.599 218.932C115.775 218.932 115.919 218.986 116.031 219.094C116.147 219.202 116.205 219.336 116.205 219.496C116.205 219.652 116.147 219.784 116.031 219.892C115.919 219.996 115.775 220.048 115.599 220.048ZM115.599 217.606C115.419 217.606 115.271 217.554 115.155 217.45C115.043 217.342 114.987 217.21 114.987 217.054C114.987 216.894 115.043 216.76 115.155 216.652C115.271 216.544 115.419 216.49 115.599 216.49C115.775 216.49 115.919 216.544 116.031 216.652C116.147 216.76 116.205 216.894 116.205 217.054C116.205 217.21 116.147 217.342 116.031 217.45C115.919 217.554 115.775 217.606 115.599 217.606Z" fill="#FF0000"/>
<path d="M120.736 215.788V218.656C120.736 219.1 120.61 219.442 120.358 219.682C120.11 219.922 119.774 220.042 119.35 220.042C118.906 220.042 118.55 219.916 118.282 219.664C118.014 219.412 117.88 219.054 117.88 218.59H118.9C118.9 218.766 118.936 218.9 119.008 218.992C119.08 219.08 119.184 219.124 119.32 219.124C119.444 219.124 119.54 219.084 119.608 219.004C119.676 218.924 119.71 218.808 119.71 218.656V215.788H120.736ZM124.87 216.652V220H123.844V219.544C123.74 219.692 123.598 219.812 123.418 219.904C123.242 219.992 123.046 220.036 122.83 220.036C122.574 220.036 122.348 219.98 122.152 219.868C121.956 219.752 121.804 219.586 121.696 219.37C121.588 219.154 121.534 218.9 121.534 218.608V216.652H122.554V218.47C122.554 218.694 122.612 218.868 122.728 218.992C122.844 219.116 123 219.178 123.196 219.178C123.396 219.178 123.554 219.116 123.67 218.992C123.786 218.868 123.844 218.694 123.844 218.47V216.652H124.87ZM126.969 220.048C126.677 220.048 126.417 219.998 126.189 219.898C125.961 219.798 125.781 219.662 125.649 219.49C125.517 219.314 125.443 219.118 125.427 218.902H126.441C126.453 219.018 126.507 219.112 126.603 219.184C126.699 219.256 126.817 219.292 126.957 219.292C127.085 219.292 127.183 219.268 127.251 219.22C127.323 219.168 127.359 219.102 127.359 219.022C127.359 218.926 127.309 218.856 127.209 218.812C127.109 218.764 126.947 218.712 126.723 218.656C126.483 218.6 126.283 218.542 126.123 218.482C125.963 218.418 125.825 218.32 125.709 218.188C125.593 218.052 125.535 217.87 125.535 217.642C125.535 217.45 125.587 217.276 125.691 217.12C125.799 216.96 125.955 216.834 126.159 216.742C126.367 216.65 126.613 216.604 126.897 216.604C127.317 216.604 127.647 216.708 127.887 216.916C128.131 217.124 128.271 217.4 128.307 217.744H127.359C127.343 217.628 127.291 217.536 127.203 217.468C127.119 217.4 127.007 217.366 126.867 217.366C126.747 217.366 126.655 217.39 126.591 217.438C126.527 217.482 126.495 217.544 126.495 217.624C126.495 217.72 126.545 217.792 126.645 217.84C126.749 217.888 126.909 217.936 127.125 217.984C127.373 218.048 127.575 218.112 127.731 218.176C127.887 218.236 128.023 218.336 128.139 218.476C128.259 218.612 128.321 218.796 128.325 219.028C128.325 219.224 128.269 219.4 128.157 219.556C128.049 219.708 127.891 219.828 127.683 219.916C127.479 220.004 127.241 220.048 126.969 220.048ZM130.819 219.13V220H130.297C129.925 220 129.635 219.91 129.427 219.73C129.219 219.546 129.115 219.248 129.115 218.836V217.504H128.707V216.652H129.115V215.836H130.141V216.652H130.813V217.504H130.141V218.848C130.141 218.948 130.165 219.02 130.213 219.064C130.261 219.108 130.341 219.13 130.453 219.13H130.819ZM138.458 215.788L137.36 220H136.118L135.446 217.228L134.75 220H133.508L132.44 215.788H133.538L134.144 218.854L134.894 215.788H136.022L136.742 218.854L137.354 215.788H138.458ZM142.129 218.272C142.129 218.368 142.123 218.468 142.111 218.572H139.789C139.805 218.78 139.871 218.94 139.987 219.052C140.107 219.16 140.253 219.214 140.425 219.214C140.681 219.214 140.859 219.106 140.959 218.89H142.051C141.995 219.11 141.893 219.308 141.745 219.484C141.601 219.66 141.419 219.798 141.199 219.898C140.979 219.998 140.733 220.048 140.461 220.048C140.133 220.048 139.841 219.978 139.585 219.838C139.329 219.698 139.129 219.498 138.985 219.238C138.841 218.978 138.769 218.674 138.769 218.326C138.769 217.978 138.839 217.674 138.979 217.414C139.123 217.154 139.323 216.954 139.579 216.814C139.835 216.674 140.129 216.604 140.461 216.604C140.785 216.604 141.073 216.672 141.325 216.808C141.577 216.944 141.773 217.138 141.913 217.39C142.057 217.642 142.129 217.936 142.129 218.272ZM141.079 218.002C141.079 217.826 141.019 217.686 140.899 217.582C140.779 217.478 140.629 217.426 140.449 217.426C140.277 217.426 140.131 217.476 140.011 217.576C139.895 217.676 139.823 217.818 139.795 218.002H141.079ZM145.465 220.042C145.157 220.042 144.881 219.992 144.637 219.892C144.393 219.792 144.197 219.644 144.049 219.448C143.905 219.252 143.829 219.016 143.821 218.74H144.913C144.929 218.896 144.983 219.016 145.075 219.1C145.167 219.18 145.287 219.22 145.435 219.22C145.587 219.22 145.707 219.186 145.795 219.118C145.883 219.046 145.927 218.948 145.927 218.824C145.927 218.72 145.891 218.634 145.819 218.566C145.751 218.498 145.665 218.442 145.561 218.398C145.461 218.354 145.317 218.304 145.129 218.248C144.857 218.164 144.635 218.08 144.463 217.996C144.291 217.912 144.143 217.788 144.019 217.624C143.895 217.46 143.833 217.246 143.833 216.982C143.833 216.59 143.975 216.284 144.259 216.064C144.543 215.84 144.913 215.728 145.369 215.728C145.833 215.728 146.207 215.84 146.491 216.064C146.775 216.284 146.927 216.592 146.947 216.988H145.837C145.829 216.852 145.779 216.746 145.687 216.67C145.595 216.59 145.477 216.55 145.333 216.55C145.209 216.55 145.109 216.584 145.033 216.652C144.957 216.716 144.919 216.81 144.919 216.934C144.919 217.07 144.983 217.176 145.111 217.252C145.239 217.328 145.439 217.41 145.711 217.498C145.983 217.59 146.203 217.678 146.371 217.762C146.543 217.846 146.691 217.968 146.815 218.128C146.939 218.288 147.001 218.494 147.001 218.746C147.001 218.986 146.939 219.204 146.815 219.4C146.695 219.596 146.519 219.752 146.287 219.868C146.055 219.984 145.781 220.042 145.465 220.042ZM149.691 216.616C150.075 216.616 150.383 216.744 150.615 217C150.847 217.252 150.963 217.6 150.963 218.044V220H149.943V218.182C149.943 217.958 149.885 217.784 149.769 217.66C149.653 217.536 149.497 217.474 149.301 217.474C149.105 217.474 148.949 217.536 148.833 217.66C148.717 217.784 148.659 217.958 148.659 218.182V220H147.633V215.56H148.659V217.102C148.763 216.954 148.905 216.836 149.085 216.748C149.265 216.66 149.467 216.616 149.691 216.616ZM153.2 220.048C152.872 220.048 152.576 219.978 152.312 219.838C152.052 219.698 151.846 219.498 151.694 219.238C151.546 218.978 151.472 218.674 151.472 218.326C151.472 217.982 151.548 217.68 151.7 217.42C151.852 217.156 152.06 216.954 152.324 216.814C152.588 216.674 152.884 216.604 153.212 216.604C153.54 216.604 153.836 216.674 154.1 216.814C154.364 216.954 154.572 217.156 154.724 217.42C154.876 217.68 154.952 217.982 154.952 218.326C154.952 218.67 154.874 218.974 154.718 219.238C154.566 219.498 154.356 219.698 154.088 219.838C153.824 219.978 153.528 220.048 153.2 220.048ZM153.2 219.16C153.396 219.16 153.562 219.088 153.698 218.944C153.838 218.8 153.908 218.594 153.908 218.326C153.908 218.058 153.84 217.852 153.704 217.708C153.572 217.564 153.408 217.492 153.212 217.492C153.012 217.492 152.846 217.564 152.714 217.708C152.582 217.848 152.516 218.054 152.516 218.326C152.516 218.594 152.58 218.8 152.708 218.944C152.84 219.088 153.004 219.16 153.2 219.16ZM160.302 216.652L159.396 220H158.262L157.734 217.828L157.188 220H156.06L155.148 216.652H156.174L156.648 219.046L157.212 216.652H158.298L158.868 219.034L159.336 216.652H160.302ZM165.613 215.788V220H164.587V218.266H162.991V220H161.965V215.788H162.991V217.438H164.587V215.788H165.613ZM166.869 216.304C166.689 216.304 166.541 216.252 166.425 216.148C166.313 216.04 166.257 215.908 166.257 215.752C166.257 215.592 166.313 215.46 166.425 215.356C166.541 215.248 166.689 215.194 166.869 215.194C167.045 215.194 167.189 215.248 167.301 215.356C167.417 215.46 167.475 215.592 167.475 215.752C167.475 215.908 167.417 216.04 167.301 216.148C167.189 216.252 167.045 216.304 166.869 216.304ZM167.379 216.652V220H166.353V216.652H167.379ZM169.395 216.604C169.631 216.604 169.837 216.652 170.013 216.748C170.193 216.844 170.331 216.97 170.427 217.126V216.652H171.453V219.994C171.453 220.302 171.391 220.58 171.267 220.828C171.147 221.08 170.961 221.28 170.709 221.428C170.461 221.576 170.151 221.65 169.779 221.65C169.283 221.65 168.881 221.532 168.573 221.296C168.265 221.064 168.089 220.748 168.045 220.348H169.059C169.091 220.476 169.167 220.576 169.287 220.648C169.407 220.724 169.555 220.762 169.731 220.762C169.943 220.762 170.111 220.7 170.235 220.576C170.363 220.456 170.427 220.262 170.427 219.994V219.52C170.327 219.676 170.189 219.804 170.013 219.904C169.837 220 169.631 220.048 169.395 220.048C169.119 220.048 168.869 219.978 168.645 219.838C168.421 219.694 168.243 219.492 168.111 219.232C167.983 218.968 167.919 218.664 167.919 218.32C167.919 217.976 167.983 217.674 168.111 217.414C168.243 217.154 168.421 216.954 168.645 216.814C168.869 216.674 169.119 216.604 169.395 216.604ZM170.427 218.326C170.427 218.07 170.355 217.868 170.211 217.72C170.071 217.572 169.899 217.498 169.695 217.498C169.491 217.498 169.317 217.572 169.173 217.72C169.033 217.864 168.963 218.064 168.963 218.32C168.963 218.576 169.033 218.78 169.173 218.932C169.317 219.08 169.491 219.154 169.695 219.154C169.899 219.154 170.071 219.08 170.211 218.932C170.355 218.784 170.427 218.582 170.427 218.326ZM174.253 216.616C174.637 216.616 174.945 216.744 175.177 217C175.409 217.252 175.525 217.6 175.525 218.044V220H174.505V218.182C174.505 217.958 174.447 217.784 174.331 217.66C174.215 217.536 174.059 217.474 173.863 217.474C173.667 217.474 173.511 217.536 173.395 217.66C173.279 217.784 173.221 217.958 173.221 218.182V220H172.195V215.56H173.221V217.102C173.325 216.954 173.467 216.836 173.647 216.748C173.827 216.66 174.029 216.616 174.253 216.616ZM177.264 215.56V220H176.238V215.56H177.264ZM178.524 216.304C178.344 216.304 178.196 216.252 178.08 216.148C177.968 216.04 177.912 215.908 177.912 215.752C177.912 215.592 177.968 215.46 178.08 215.356C178.196 215.248 178.344 215.194 178.524 215.194C178.7 215.194 178.844 215.248 178.956 215.356C179.072 215.46 179.13 215.592 179.13 215.752C179.13 215.908 179.072 216.04 178.956 216.148C178.844 216.252 178.7 216.304 178.524 216.304ZM179.034 216.652V220H178.008V216.652H179.034ZM181.049 216.604C181.285 216.604 181.491 216.652 181.667 216.748C181.847 216.844 181.985 216.97 182.081 217.126V216.652H183.107V219.994C183.107 220.302 183.045 220.58 182.921 220.828C182.801 221.08 182.615 221.28 182.363 221.428C182.115 221.576 181.805 221.65 181.433 221.65C180.937 221.65 180.535 221.532 180.227 221.296C179.919 221.064 179.743 220.748 179.699 220.348H180.713C180.745 220.476 180.821 220.576 180.941 220.648C181.061 220.724 181.209 220.762 181.385 220.762C181.597 220.762 181.765 220.7 181.889 220.576C182.017 220.456 182.081 220.262 182.081 219.994V219.52C181.981 219.676 181.843 219.804 181.667 219.904C181.491 220 181.285 220.048 181.049 220.048C180.773 220.048 180.523 219.978 180.299 219.838C180.075 219.694 179.897 219.492 179.765 219.232C179.637 218.968 179.573 218.664 179.573 218.32C179.573 217.976 179.637 217.674 179.765 217.414C179.897 217.154 180.075 216.954 180.299 216.814C180.523 216.674 180.773 216.604 181.049 216.604ZM182.081 218.326C182.081 218.07 182.009 217.868 181.865 217.72C181.725 217.572 181.553 217.498 181.349 217.498C181.145 217.498 180.971 217.572 180.827 217.72C180.687 217.864 180.617 218.064 180.617 218.32C180.617 218.576 180.687 218.78 180.827 218.932C180.971 219.08 181.145 219.154 181.349 219.154C181.553 219.154 181.725 219.08 181.865 218.932C182.009 218.784 182.081 218.582 182.081 218.326ZM185.908 216.616C186.292 216.616 186.6 216.744 186.832 217C187.064 217.252 187.18 217.6 187.18 218.044V220H186.16V218.182C186.16 217.958 186.102 217.784 185.986 217.66C185.87 217.536 185.714 217.474 185.518 217.474C185.322 217.474 185.166 217.536 185.05 217.66C184.934 217.784 184.876 217.958 184.876 218.182V220H183.85V215.56H184.876V217.102C184.98 216.954 185.122 216.836 185.302 216.748C185.482 216.66 185.684 216.616 185.908 216.616ZM189.759 219.13V220H189.237C188.865 220 188.575 219.91 188.367 219.73C188.159 219.546 188.055 219.248 188.055 218.836V217.504H187.647V216.652H188.055V215.836H189.081V216.652H189.753V217.504H189.081V218.848C189.081 218.948 189.105 219.02 189.153 219.064C189.201 219.108 189.281 219.13 189.393 219.13H189.759ZM193.486 218.272C193.486 218.368 193.48 218.468 193.468 218.572H191.146C191.162 218.78 191.228 218.94 191.344 219.052C191.464 219.16 191.61 219.214 191.782 219.214C192.038 219.214 192.216 219.106 192.316 218.89H193.408C193.352 219.11 193.25 219.308 193.102 219.484C192.958 219.66 192.776 219.798 192.556 219.898C192.336 219.998 192.09 220.048 191.818 220.048C191.49 220.048 191.198 219.978 190.942 219.838C190.686 219.698 190.486 219.498 190.342 219.238C190.198 218.978 190.126 218.674 190.126 218.326C190.126 217.978 190.196 217.674 190.336 217.414C190.48 217.154 190.68 216.954 190.936 216.814C191.192 216.674 191.486 216.604 191.818 216.604C192.142 216.604 192.43 216.672 192.682 216.808C192.934 216.944 193.13 217.138 193.27 217.39C193.414 217.642 193.486 217.936 193.486 218.272ZM192.436 218.002C192.436 217.826 192.376 217.686 192.256 217.582C192.136 217.478 191.986 217.426 191.806 217.426C191.634 217.426 191.488 217.476 191.368 217.576C191.252 217.676 191.18 217.818 191.152 218.002H192.436ZM193.823 218.32C193.823 217.976 193.887 217.674 194.015 217.414C194.147 217.154 194.325 216.954 194.549 216.814C194.773 216.674 195.023 216.604 195.299 216.604C195.519 216.604 195.719 216.65 195.899 216.742C196.083 216.834 196.227 216.958 196.331 217.114V215.56H197.357V220H196.331V219.52C196.235 219.68 196.097 219.808 195.917 219.904C195.741 220 195.535 220.048 195.299 220.048C195.023 220.048 194.773 219.978 194.549 219.838C194.325 219.694 194.147 219.492 194.015 219.232C193.887 218.968 193.823 218.664 193.823 218.32ZM196.331 218.326C196.331 218.07 196.259 217.868 196.115 217.72C195.975 217.572 195.803 217.498 195.599 217.498C195.395 217.498 195.221 217.572 195.077 217.72C194.937 217.864 194.867 218.064 194.867 218.32C194.867 218.576 194.937 218.78 195.077 218.932C195.221 219.08 195.395 219.154 195.599 219.154C195.803 219.154 195.975 219.08 196.115 218.932C196.259 218.784 196.331 218.582 196.331 218.326ZM202.113 215.788V216.61H200.397V217.498H201.681V218.296H200.397V220H199.371V215.788H202.113ZM204.176 220.048C203.848 220.048 203.552 219.978 203.288 219.838C203.028 219.698 202.822 219.498 202.67 219.238C202.522 218.978 202.448 218.674 202.448 218.326C202.448 217.982 202.524 217.68 202.676 217.42C202.828 217.156 203.036 216.954 203.3 216.814C203.564 216.674 203.86 216.604 204.188 216.604C204.516 216.604 204.812 216.674 205.076 216.814C205.34 216.954 205.548 217.156 205.7 217.42C205.852 217.68 205.928 217.982 205.928 218.326C205.928 218.67 205.85 218.974 205.694 219.238C205.542 219.498 205.332 219.698 205.064 219.838C204.8 219.978 204.504 220.048 204.176 220.048ZM204.176 219.16C204.372 219.16 204.538 219.088 204.674 218.944C204.814 218.8 204.884 218.594 204.884 218.326C204.884 218.058 204.816 217.852 204.68 217.708C204.548 217.564 204.384 217.492 204.188 217.492C203.988 217.492 203.822 217.564 203.69 217.708C203.558 217.848 203.492 218.054 203.492 218.326C203.492 218.594 203.556 218.8 203.684 218.944C203.816 219.088 203.98 219.16 204.176 219.16ZM207.499 217.21C207.619 217.026 207.769 216.882 207.949 216.778C208.129 216.67 208.329 216.616 208.549 216.616V217.702H208.267C208.011 217.702 207.819 217.758 207.691 217.87C207.563 217.978 207.499 218.17 207.499 218.446V220H206.473V216.652H207.499V217.21ZM213.311 216.616C213.727 216.616 214.057 216.742 214.301 216.994C214.549 217.246 214.673 217.596 214.673 218.044V220H213.653V218.182C213.653 217.966 213.595 217.8 213.479 217.684C213.367 217.564 213.211 217.504 213.011 217.504C212.811 217.504 212.653 217.564 212.537 217.684C212.425 217.8 212.369 217.966 212.369 218.182V220H211.349V218.182C211.349 217.966 211.291 217.8 211.175 217.684C211.063 217.564 210.907 217.504 210.707 217.504C210.507 217.504 210.349 217.564 210.233 217.684C210.121 217.8 210.065 217.966 210.065 218.182V220H209.039V216.652H210.065V217.072C210.169 216.932 210.305 216.822 210.473 216.742C210.641 216.658 210.831 216.616 211.043 216.616C211.295 216.616 211.519 216.67 211.715 216.778C211.915 216.886 212.071 217.04 212.183 217.24C212.299 217.056 212.457 216.906 212.657 216.79C212.857 216.674 213.075 216.616 213.311 216.616ZM220.31 215.788V220H219.284V218.266H217.688V220H216.662V215.788H217.688V217.438H219.284V215.788H220.31ZM224.207 218.272C224.207 218.368 224.201 218.468 224.189 218.572H221.867C221.883 218.78 221.949 218.94 222.065 219.052C222.185 219.16 222.331 219.214 222.503 219.214C222.759 219.214 222.937 219.106 223.037 218.89H224.129C224.073 219.11 223.971 219.308 223.823 219.484C223.679 219.66 223.497 219.798 223.277 219.898C223.057 219.998 222.811 220.048 222.539 220.048C222.211 220.048 221.919 219.978 221.663 219.838C221.407 219.698 221.207 219.498 221.063 219.238C220.919 218.978 220.847 218.674 220.847 218.326C220.847 217.978 220.917 217.674 221.057 217.414C221.201 217.154 221.401 216.954 221.657 216.814C221.913 216.674 222.207 216.604 222.539 216.604C222.863 216.604 223.151 216.672 223.403 216.808C223.655 216.944 223.851 217.138 223.991 217.39C224.135 217.642 224.207 217.936 224.207 218.272ZM223.157 218.002C223.157 217.826 223.097 217.686 222.977 217.582C222.857 217.478 222.707 217.426 222.527 217.426C222.355 217.426 222.209 217.476 222.089 217.576C221.973 217.676 221.901 217.818 221.873 218.002H223.157ZM225.774 217.21C225.894 217.026 226.044 216.882 226.224 216.778C226.404 216.67 226.604 216.616 226.824 216.616V217.702H226.542C226.286 217.702 226.094 217.758 225.966 217.87C225.838 217.978 225.774 218.17 225.774 218.446V220H224.748V216.652H225.774V217.21ZM230.47 218.272C230.47 218.368 230.464 218.468 230.452 218.572H228.13C228.146 218.78 228.212 218.94 228.328 219.052C228.448 219.16 228.594 219.214 228.766 219.214C229.022 219.214 229.2 219.106 229.3 218.89H230.392C230.336 219.11 230.234 219.308 230.086 219.484C229.942 219.66 229.76 219.798 229.54 219.898C229.32 219.998 229.074 220.048 228.802 220.048C228.474 220.048 228.182 219.978 227.926 219.838C227.67 219.698 227.47 219.498 227.326 219.238C227.182 218.978 227.11 218.674 227.11 218.326C227.11 217.978 227.18 217.674 227.32 217.414C227.464 217.154 227.664 216.954 227.92 216.814C228.176 216.674 228.47 216.604 228.802 216.604C229.126 216.604 229.414 216.672 229.666 216.808C229.918 216.944 230.114 217.138 230.254 217.39C230.398 217.642 230.47 217.936 230.47 218.272ZM229.42 218.002C229.42 217.826 229.36 217.686 229.24 217.582C229.12 217.478 228.97 217.426 228.79 217.426C228.618 217.426 228.472 217.476 228.352 217.576C228.236 217.676 228.164 217.818 228.136 218.002H229.42ZM231.492 220.048C231.312 220.048 231.164 219.996 231.048 219.892C230.936 219.784 230.88 219.652 230.88 219.496C230.88 219.336 230.936 219.202 231.048 219.094C231.164 218.986 231.312 218.932 231.492 218.932C231.668 218.932 231.812 218.986 231.924 219.094C232.04 219.202 232.098 219.336 232.098 219.496C232.098 219.652 232.04 219.784 231.924 219.892C231.812 219.996 231.668 220.048 231.492 220.048ZM233.185 220.048C233.005 220.048 232.857 219.996 232.741 219.892C232.629 219.784 232.573 219.652 232.573 219.496C232.573 219.336 232.629 219.202 232.741 219.094C232.857 218.986 233.005 218.932 233.185 218.932C233.361 218.932 233.505 218.986 233.617 219.094C233.733 219.202 233.791 219.336 233.791 219.496C233.791 219.652 233.733 219.784 233.617 219.892C233.505 219.996 233.361 220.048 233.185 220.048ZM234.878 220.048C234.698 220.048 234.55 219.996 234.434 219.892C234.322 219.784 234.266 219.652 234.266 219.496C234.266 219.336 234.322 219.202 234.434 219.094C234.55 218.986 234.698 218.932 234.878 218.932C235.054 218.932 235.198 218.986 235.31 219.094C235.426 219.202 235.484 219.336 235.484 219.496C235.484 219.652 235.426 219.784 235.31 219.892C235.198 219.996 235.054 220.048 234.878 220.048Z" fill="black"/>
<rect x="79" y="89" width="63" height="22" rx="2" fill="#007F55"/>
<path d="M103.029 99.84C103.273 99.892 103.469 100.014 103.617 100.206C103.765 100.394 103.839 100.61 103.839 100.854C103.839 101.206 103.715 101.486 103.467 101.694C103.223 101.898 102.881 102 102.441 102H100.479V97.788H102.375C102.803 97.788 103.137 97.886 103.377 98.082C103.621 98.278 103.743 98.544 103.743 98.88C103.743 99.128 103.677 99.334 103.545 99.498C103.417 99.662 103.245 99.776 103.029 99.84ZM101.505 99.492H102.177C102.345 99.492 102.473 99.456 102.561 99.384C102.653 99.308 102.699 99.198 102.699 99.054C102.699 98.91 102.653 98.8 102.561 98.724C102.473 98.648 102.345 98.61 102.177 98.61H101.505V99.492ZM102.261 101.172C102.433 101.172 102.565 101.134 102.657 101.058C102.753 100.978 102.801 100.864 102.801 100.716C102.801 100.568 102.751 100.452 102.651 100.368C102.555 100.284 102.421 100.242 102.249 100.242H101.505V101.172H102.261ZM107.741 98.652V102H106.715V101.544C106.611 101.692 106.469 101.812 106.289 101.904C106.113 101.992 105.917 102.036 105.701 102.036C105.445 102.036 105.219 101.98 105.023 101.868C104.827 101.752 104.675 101.586 104.567 101.37C104.459 101.154 104.405 100.9 104.405 100.608V98.652H105.425V100.47C105.425 100.694 105.483 100.868 105.599 100.992C105.715 101.116 105.871 101.178 106.067 101.178C106.267 101.178 106.425 101.116 106.541 100.992C106.657 100.868 106.715 100.694 106.715 100.47V98.652H107.741ZM109.503 97.56V102H108.477V97.56H109.503ZM112.293 102L111.273 100.596V102H110.247V97.56H111.273V100.014L112.287 98.652H113.553L112.161 100.332L113.565 102H112.293ZM116.235 97.788V100.308C116.235 100.56 116.297 100.754 116.421 100.89C116.545 101.026 116.727 101.094 116.967 101.094C117.207 101.094 117.391 101.026 117.519 100.89C117.647 100.754 117.711 100.56 117.711 100.308V97.788H118.737V100.302C118.737 100.678 118.657 100.996 118.497 101.256C118.337 101.516 118.121 101.712 117.849 101.844C117.581 101.976 117.281 102.042 116.949 102.042C116.617 102.042 116.319 101.978 116.055 101.85C115.795 101.718 115.589 101.522 115.437 101.262C115.285 100.998 115.209 100.678 115.209 100.302V97.788H116.235ZM120.484 99.126C120.584 98.97 120.722 98.844 120.898 98.748C121.074 98.652 121.28 98.604 121.516 98.604C121.792 98.604 122.042 98.674 122.266 98.814C122.49 98.954 122.666 99.154 122.794 99.414C122.926 99.674 122.992 99.976 122.992 100.32C122.992 100.664 122.926 100.968 122.794 101.232C122.666 101.492 122.49 101.694 122.266 101.838C122.042 101.978 121.792 102.048 121.516 102.048C121.284 102.048 121.078 102 120.898 101.904C120.722 101.808 120.584 101.684 120.484 101.532V103.596H119.458V98.652H120.484V99.126ZM121.948 100.32C121.948 100.064 121.876 99.864 121.732 99.72C121.592 99.572 121.418 99.498 121.21 99.498C121.006 99.498 120.832 99.572 120.688 99.72C120.548 99.868 120.478 100.07 120.478 100.326C120.478 100.582 120.548 100.784 120.688 100.932C120.832 101.08 121.006 101.154 121.21 101.154C121.414 101.154 121.588 101.08 121.732 100.932C121.876 100.78 121.948 100.576 121.948 100.32ZM124.556 97.56V102H123.53V97.56H124.556ZM126.824 102.048C126.496 102.048 126.2 101.978 125.936 101.838C125.676 101.698 125.47 101.498 125.318 101.238C125.17 100.978 125.096 100.674 125.096 100.326C125.096 99.982 125.172 99.68 125.324 99.42C125.476 99.156 125.684 98.954 125.948 98.814C126.212 98.674 126.508 98.604 126.836 98.604C127.164 98.604 127.46 98.674 127.724 98.814C127.988 98.954 128.196 99.156 128.348 99.42C128.5 99.68 128.576 99.982 128.576 100.326C128.576 100.67 128.498 100.974 128.342 101.238C128.19 101.498 127.98 101.698 127.712 101.838C127.448 101.978 127.152 102.048 126.824 102.048ZM126.824 101.16C127.02 101.16 127.186 101.088 127.322 100.944C127.462 100.8 127.532 100.594 127.532 100.326C127.532 100.058 127.464 99.852 127.328 99.708C127.196 99.564 127.032 99.492 126.836 99.492C126.636 99.492 126.47 99.564 126.338 99.708C126.206 99.848 126.14 100.054 126.14 100.326C126.14 100.594 126.204 100.8 126.332 100.944C126.464 101.088 126.628 101.16 126.824 101.16ZM128.916 100.32C128.916 99.976 128.98 99.674 129.108 99.414C129.24 99.154 129.418 98.954 129.642 98.814C129.866 98.674 130.116 98.604 130.392 98.604C130.628 98.604 130.834 98.652 131.01 98.748C131.19 98.844 131.328 98.97 131.424 99.126V98.652H132.45V102H131.424V101.526C131.324 101.682 131.184 101.808 131.004 101.904C130.828 102 130.622 102.048 130.386 102.048C130.114 102.048 129.866 101.978 129.642 101.838C129.418 101.694 129.24 101.492 129.108 101.232C128.98 100.968 128.916 100.664 128.916 100.32ZM131.424 100.326C131.424 100.07 131.352 99.868 131.208 99.72C131.068 99.572 130.896 99.498 130.692 99.498C130.488 99.498 130.314 99.572 130.17 99.72C130.03 99.864 129.96 100.064 129.96 100.32C129.96 100.576 130.03 100.78 130.17 100.932C130.314 101.08 130.488 101.154 130.692 101.154C130.896 101.154 131.068 101.08 131.208 100.932C131.352 100.784 131.424 100.582 131.424 100.326ZM132.988 100.32C132.988 99.976 133.052 99.674 133.18 99.414C133.312 99.154 133.49 98.954 133.714 98.814C133.938 98.674 134.188 98.604 134.464 98.604C134.684 98.604 134.884 98.65 135.064 98.742C135.248 98.834 135.392 98.958 135.496 99.114V97.56H136.522V102H135.496V101.52C135.4 101.68 135.262 101.808 135.082 101.904C134.906 102 134.7 102.048 134.464 102.048C134.188 102.048 133.938 101.978 133.714 101.838C133.49 101.694 133.312 101.492 133.18 101.232C133.052 100.968 132.988 100.664 132.988 100.32ZM135.496 100.326C135.496 100.07 135.424 99.868 135.28 99.72C135.14 99.572 134.968 99.498 134.764 99.498C134.56 99.498 134.386 99.572 134.242 99.72C134.102 99.864 134.032 100.064 134.032 100.32C134.032 100.576 134.102 100.78 134.242 100.932C134.386 101.08 134.56 101.154 134.764 101.154C134.968 101.154 135.14 101.08 135.28 100.932C135.424 100.784 135.496 100.582 135.496 100.326Z" fill="white"/>
<g clip-path="url(#clip0_543_1099)">
<path fill-rule="evenodd" clip-rule="evenodd" d="M89.7516 96.0004C88.4271 96.0004 87.3711 97.1904 87.5151 98.5004C87.5285 98.6217 87.4974 98.7437 87.4278 98.8439C87.3581 98.9441 87.2545 99.0156 87.1361 99.0454C86.7826 99.136 86.4742 99.3522 86.2686 99.6538C86.063 99.9553 85.9743 100.321 86.0191 100.684C86.0639 101.046 86.2391 101.379 86.512 101.622C86.7849 101.864 87.1367 101.999 87.5016 102H88.0016C88.1342 102 88.2614 102.053 88.3552 102.147C88.449 102.241 88.5016 102.368 88.5016 102.5C88.5016 102.633 88.449 102.76 88.3552 102.854C88.2614 102.948 88.1342 103 88.0016 103H87.5016C86.927 103.001 86.3698 102.803 85.9237 102.441C85.4777 102.078 85.1701 101.574 85.0527 101.011C84.9353 100.449 85.0153 99.8627 85.2792 99.3523C85.5431 98.8418 85.9748 98.4378 86.5016 98.2084C86.5107 97.4503 86.7844 96.7193 87.2755 96.1418C87.7666 95.5642 88.4441 95.1766 89.1908 95.0458C89.9375 94.915 90.7065 95.0494 91.3646 95.4257C92.0227 95.802 92.5286 96.3965 92.7946 97.1064C93.4943 97.2993 94.1003 97.7393 94.5005 98.3448C94.9006 98.9502 95.0678 99.6802 94.971 100.4C94.8742 101.119 94.5201 101.779 93.9741 102.257C93.4282 102.735 92.7274 102.999 92.0016 103C91.869 103 91.7419 102.948 91.6481 102.854C91.5543 102.76 91.5016 102.633 91.5016 102.5C91.5016 102.368 91.5543 102.241 91.6481 102.147C91.7419 102.053 91.869 102 92.0016 102C92.5042 102.001 92.9885 101.813 93.3584 101.473C93.7283 101.132 93.9566 100.665 93.9979 100.165C94.0392 99.6638 93.8904 99.1658 93.5812 98.7697C93.272 98.3736 92.825 98.1084 92.3291 98.0269C92.2337 98.0111 92.1447 97.9682 92.0729 97.9033C92.0011 97.8384 91.9495 97.7543 91.9241 97.6609C91.7947 97.1839 91.5117 96.7628 91.1191 96.4627C90.7264 96.1626 90.2459 96.0001 89.7516 96.0004ZM90.5016 100.208L91.1481 100.854C91.1946 100.901 91.2498 100.938 91.3105 100.963C91.3712 100.988 91.4363 101.001 91.502 101.001C91.5677 101.001 91.6327 100.988 91.6934 100.962C91.7541 100.937 91.8092 100.9 91.8556 100.854C91.9021 100.807 91.9389 100.752 91.964 100.691C91.9891 100.631 92.002 100.566 92.0019 100.5C92.0019 100.434 91.9889 100.369 91.9637 100.309C91.9385 100.248 91.9016 100.193 91.8551 100.146L90.4431 98.7369C90.326 98.6199 90.1672 98.5542 90.0016 98.5542C89.8361 98.5542 89.6773 98.6199 89.5601 98.7369L88.1481 100.147C88.0543 100.241 88.0016 100.368 88.0015 100.5C88.0015 100.633 88.0541 100.76 88.1479 100.854C88.2416 100.948 88.3688 101.001 88.5015 101.001C88.6341 101.001 88.7613 100.948 88.8551 100.854L89.5016 100.208V104.5C89.5016 104.633 89.5543 104.76 89.6481 104.854C89.7419 104.948 89.869 105 90.0016 105C90.1342 105 90.2614 104.948 90.3552 104.854C90.449 104.76 90.5016 104.633 90.5016 104.5V100.208Z" fill="white"/>
</g>
<path d="M155.659 133H153.607L150.175 127.804V133H148.123V124.576H150.175L153.607 129.796V124.576H155.659V133ZM160.194 133.096C159.538 133.096 158.946 132.956 158.418 132.676C157.898 132.396 157.486 131.996 157.182 131.476C156.886 130.956 156.738 130.348 156.738 129.652C156.738 128.964 156.89 128.36 157.194 127.84C157.498 127.312 157.914 126.908 158.442 126.628C158.97 126.348 159.562 126.208 160.218 126.208C160.874 126.208 161.466 126.348 161.994 126.628C162.522 126.908 162.938 127.312 163.242 127.84C163.546 128.36 163.698 128.964 163.698 129.652C163.698 130.34 163.542 130.948 163.23 131.476C162.926 131.996 162.506 132.396 161.97 132.676C161.442 132.956 160.85 133.096 160.194 133.096ZM160.194 131.32C160.586 131.32 160.918 131.176 161.19 130.888C161.47 130.6 161.61 130.188 161.61 129.652C161.61 129.116 161.474 128.704 161.202 128.416C160.938 128.128 160.61 127.984 160.218 127.984C159.818 127.984 159.486 128.128 159.222 128.416C158.958 128.696 158.826 129.108 158.826 129.652C158.826 130.188 158.954 130.6 159.21 130.888C159.474 131.176 159.802 131.32 160.194 131.32ZM172.814 124.576V126.22H169.382V127.996H171.95V129.592H169.382V133H167.33V124.576H172.814ZM174.924 125.608C174.564 125.608 174.268 125.504 174.036 125.296C173.812 125.08 173.7 124.816 173.7 124.504C173.7 124.184 173.812 123.92 174.036 123.712C174.268 123.496 174.564 123.388 174.924 123.388C175.276 123.388 175.564 123.496 175.788 123.712C176.02 123.92 176.136 124.184 176.136 124.504C176.136 124.816 176.02 125.08 175.788 125.296C175.564 125.504 175.276 125.608 174.924 125.608ZM175.944 126.304V133H173.892V126.304H175.944ZM179.484 124.12V133H177.432V124.12H179.484ZM187.283 129.544C187.283 129.736 187.271 129.936 187.247 130.144H182.603C182.635 130.56 182.767 130.88 182.999 131.104C183.239 131.32 183.531 131.428 183.875 131.428C184.387 131.428 184.743 131.212 184.943 130.78H187.127C187.015 131.22 186.811 131.616 186.515 131.968C186.227 132.32 185.863 132.596 185.423 132.796C184.983 132.996 184.491 133.096 183.947 133.096C183.291 133.096 182.707 132.956 182.195 132.676C181.683 132.396 181.283 131.996 180.995 131.476C180.707 130.956 180.563 130.348 180.563 129.652C180.563 128.956 180.703 128.348 180.983 127.828C181.271 127.308 181.671 126.908 182.183 126.628C182.695 126.348 183.283 126.208 183.947 126.208C184.595 126.208 185.171 126.344 185.675 126.616C186.179 126.888 186.571 127.276 186.851 127.78C187.139 128.284 187.283 128.872 187.283 129.544ZM185.183 129.004C185.183 128.652 185.063 128.372 184.823 128.164C184.583 127.956 184.283 127.852 183.923 127.852C183.579 127.852 183.287 127.952 183.047 128.152C182.815 128.352 182.671 128.636 182.615 129.004H185.183Z" fill="#939393"/>
<g clip-path="url(#clip1_543_1099)">
<path d="M102.128 115.714L101.564 115.296C101.515 115.26 101.473 115.213 101.441 115.161C101.409 115.108 101.388 115.049 101.379 114.988C101.37 114.927 101.373 114.865 101.388 114.805C101.403 114.745 101.43 114.689 101.467 114.639L103.327 112.128L101.278 111.674L101.265 111.671C101.148 111.64 101.042 111.575 100.961 111.484C100.88 111.394 100.828 111.281 100.81 111.161L100.806 111.131C100.793 111.005 100.818 110.878 100.879 110.767C100.941 110.656 101.034 110.567 101.148 110.511L107.033 107.571C107.135 107.52 107.251 107.498 107.365 107.508C107.48 107.518 107.59 107.559 107.682 107.628C107.775 107.696 107.847 107.789 107.889 107.896C107.932 108.003 107.945 108.119 107.926 108.233L106.827 114.718C106.805 114.843 106.746 114.957 106.657 115.047C106.569 115.137 106.456 115.198 106.332 115.223C106.209 115.247 106.08 115.234 105.965 115.184C105.849 115.134 105.751 115.051 105.683 114.944L105.676 114.932L104.643 113.105L102.783 115.616C102.709 115.716 102.599 115.782 102.476 115.801C102.353 115.819 102.228 115.788 102.128 115.714Z" fill="#A8A8A8"/>
</g>
<defs>
<filter id="filter0_d_543_1099" x="66" y="66" width="204" height="126" filterUnits="userSpaceOnUse" color-interpolation-filters="sRGB">
<feFlood flood-opacity="0" result="BackgroundImageFix"/>
<feColorMatrix in="SourceAlpha" type="matrix" values="0 0 0 0 0 0 0 0 0 0 0 0 0 0 0 0 0 0 127 0" result="hardAlpha"/>
<feOffset dy="4"/>
<feGaussianBlur stdDeviation="2"/>
<feComposite in2="hardAlpha" operator="out"/>
<feColorMatrix type="matrix" values="0 0 0 0 0 0 0 0 0 0 0 0 0 0 0 0 0 0 0.25 0"/>
<feBlend mode="normal" in2="BackgroundImageFix" result="effect1_dropShadow_543_1099"/>
<feBlend mode="normal" in="SourceGraphic" in2="effect1_dropShadow_543_1099" result="shape"/>
</filter>
<filter id="filter1_d_543_1099" x="88.4" y="19.4" width="168.2" height="41.2" filterUnits="userSpaceOnUse" color-interpolation-filters="sRGB">
<feFlood flood-opacity="0" result="BackgroundImageFix"/>
<feColorMatrix in="SourceAlpha" type="matrix" values="0 0 0 0 0 0 0 0 0 0 0 0 0 0 0 0 0 0 127 0" result="hardAlpha"/>
<feOffset dx="5" dy="7"/>
<feGaussianBlur stdDeviation="3.8"/>
<feComposite in2="hardAlpha" operator="out"/>
<feColorMatrix type="matrix" values="0 0 0 0 0 0 0 0 0 0 0 0 0 0 0 0 0 0 0.25 0"/>
<feBlend mode="normal" in2="BackgroundImageFix" result="effect1_dropShadow_543_1099"/>
<feBlend mode="normal" in="SourceGraphic" in2="effect1_dropShadow_543_1099" result="shape"/>
</filter>
<clipPath id="clip0_543_1099">
<rect width="12" height="12" fill="white" transform="translate(84 94)"/>
</clipPath>
<clipPath id="clip1_543_1099">
<rect width="10" height="10" fill="white" transform="translate(108.891 106) rotate(81.5354)"/>
</clipPath>
</defs>
</svg>
